<?xml version="1.0" standalone="no"?>
<!DOCTYPE svg PUBLIC "-//W3C//DTD SVG 20010904//EN"
 "http://www.w3.org/TR/2001/REC-SVG-20010904/DTD/svg10.dtd">
<svg version="1.0" xmlns="http://www.w3.org/2000/svg"
 width="1000.000000pt" height="1000.000000pt" viewBox="0 0 1000.000000 1000.000000"
 preserveAspectRatio="xMidYMid meet">

<g transform="translate(0.000000,1000.000000) scale(0.100000,-0.100000)"
fill="#000000" stroke="none">
<path d="M4800 9763 c-208 -8 -521 -45 -740 -89 -703 -141 -1375 -440 -1945
-867 -327 -246 -698 -617 -952 -953 -635 -839 -980 -1909 -957 -2966 15 -710
171 -1358 478 -1993 252 -520 546 -927 968 -1341 372 -365 768 -644 1243 -875
546 -265 1080 -413 1705 -470 173 -16 626 -16 800 0 924 84 1760 402 2485 945
325 243 665 579 918 908 454 591 765 1279 906 2008 38 198 69 447 81 642 8
143 5 516 -5 604 -2 21 -7 73 -10 114 -15 199 -74 532 -135 765 -150 572 -428
1153 -778 1625 -263 355 -636 731 -977 986 -541 405 -1178 699 -1828 844 -390
86 -855 128 -1257 113z m385 -483 c970 -52 1828 -386 2575 -1004 129 -106 390
-366 503 -501 246 -292 431 -574 586 -890 327 -665 473 -1367 440 -2110 -30
-669 -230 -1357 -564 -1935 -530 -920 -1370 -1608 -2365 -1940 -1105 -369
-2280 -280 -3315 251 -395 202 -718 435 -1039 748 -569 557 -958 1225 -1161
1991 -138 525 -174 1129 -99 1680 123 903 542 1759 1184 2414 699 713 1582
1150 2575 1271 108 13 244 23 460 33 17 1 116 -3 220 -8z"/>
<path d="M4645 8979 c-411 -39 -868 -154 -1213 -305 l-44 -19 61 -77 c34 -43
63 -78 66 -78 2 0 42 15 89 34 288 116 639 204 996 248 140 17 660 17 800 0
888 -109 1647 -470 2253 -1070 331 -327 559 -645 757 -1055 196 -407 306 -791
362 -1262 19 -164 16 -645 -5 -815 -67 -533 -227 -1020 -480 -1460 -62 -109
-179 -288 -229 -351 -15 -20 -28 -42 -28 -49 0 -18 112 -160 122 -154 4 3 32
38 61 77 409 554 666 1207 753 1917 26 204 26 686 1 890 -91 735 -355 1396
-784 1962 -234 310 -567 632 -883 854 -576 406 -1244 648 -1965 714 -129 12
-560 11 -690 -1z"/>
<path d="M4760 8373 c-69 -7 -196 -34 -255 -55 -108 -38 -154 -63 -198 -108
l-32 -33 -3 -1190 c-2 -854 -5 -1194 -13 -1204 -10 -11 -218 -13 -1189 -13
l-1177 0 -34 -23 c-63 -42 -124 -167 -161 -332 -26 -115 -37 -505 -18 -651 27
-216 99 -397 179 -452 24 -16 108 -17 1216 -22 l1190 -5 5 -1191 5 -1190 35
-37 c19 -20 39 -37 44 -37 5 0 17 -6 25 -14 32 -27 185 -77 297 -96 148 -25
481 -28 637 -5 208 31 350 94 425 188 9 13 12 266 12 1190 0 899 3 1176 12
1185 9 9 285 12 1181 12 1297 0 1208 -5 1262 66 60 78 112 233 134 397 16 116
14 464 -4 577 -26 171 -70 295 -133 378 -50 66 36 62 -1256 62 -1152 0 -1176
0 -1186 19 -7 13 -10 404 -10 1196 0 926 -3 1179 -12 1192 -75 93 -219 157
-425 188 -95 14 -447 19 -553 8z"/>
<path d="M1989 7623 c-25 -27 -76 -87 -114 -136 -473 -597 -762 -1307 -847
-2082 -17 -158 -17 -633 0 -790 103 -936 492 -1760 1137 -2411 159 -160 268
-255 449 -390 1053 -789 2440 -1004 3696 -572 191 66 516 211 640 286 l30 19
-60 76 -61 76 -167 -84 c-415 -206 -825 -327 -1297 -381 -204 -23 -586 -23
-790 0 -884 101 -1663 473 -2280 1091 -559 558 -927 1268 -1059 2040 -43 257
-51 354 -50 655 0 314 17 482 73 757 126 608 430 1233 817 1679 l54 62 -61 76
c-33 42 -62 76 -64 76 -1 0 -22 -21 -46 -47z"/>
</g>
</svg>
