<?xml version="1.0" standalone="no"?>
<!DOCTYPE svg PUBLIC "-//W3C//DTD SVG 20010904//EN"
 "http://www.w3.org/TR/2001/REC-SVG-20010904/DTD/svg10.dtd">
<svg version="1.0" xmlns="http://www.w3.org/2000/svg"
 width="1000.000000pt" height="1000.000000pt" viewBox="0 0 1000.000000 1000.000000"
 preserveAspectRatio="xMidYMid meet">

<g transform="translate(0.000000,1000.000000) scale(0.100000,-0.100000)"
fill="#000000" stroke="none">
<path d="M4610 9594 c-1037 -90 -1955 -471 -2725 -1132 -123 -105 -383 -365
-486 -487 -911 -1070 -1300 -2455 -1073 -3825 142 -859 511 -1645 1082 -2307
823 -953 2001 -1534 3267 -1612 1261 -77 2422 294 3374 1078 160 132 466 438
602 602 237 287 430 583 593 914 116 234 180 387 255 612 385 1156 300 2427
-234 3528 -618 1273 -1787 2202 -3165 2519 -390 89 -563 107 -1045 111 -220 1
-420 1 -445 -1z m565 -414 c687 -41 1310 -224 1900 -558 140 -79 416 -267 555
-378 176 -140 516 -481 654 -654 459 -579 761 -1250 880 -1960 76 -448 79
-946 10 -1380 -145 -904 -562 -1720 -1209 -2365 -463 -462 -1029 -812 -1648
-1019 -629 -212 -1255 -271 -1887 -180 -1062 153 -2044 715 -2714 1554 -501
626 -813 1367 -911 2163 -36 294 -38 688 -5 982 91 802 409 1567 917 2205 126
157 381 422 538 557 709 612 1609 977 2545 1032 196 12 190 12 375 1z"/>
<path d="M4595 8864 c-348 -38 -679 -117 -1005 -241 -154 -59 -414 -181 -543
-255 l-77 -45 49 -46 c28 -26 52 -47 55 -47 3 0 29 14 58 31 93 55 300 155
428 207 1286 520 2744 310 3817 -551 536 -429 943 -987 1186 -1627 179 -468
257 -935 244 -1450 -12 -448 -87 -834 -244 -1254 l-56 -150 47 -43 c26 -24 52
-41 56 -38 12 7 101 236 145 370 80 247 148 578 176 860 18 176 15 570 -5 753
-87 802 -396 1530 -909 2142 -132 158 -389 410 -543 532 -614 488 -1311 772
-2086 853 -185 19 -611 18 -793 -1z"/>
<path d="M4770 7480 c-263 -33 -499 -118 -698 -252 -99 -67 -247 -210 -328
-317 -75 -100 -237 -371 -252 -421 -29 -99 -20 -215 23 -301 106 -209 378
-273 562 -133 18 14 81 98 139 187 206 314 304 399 545 475 238 76 439 63 677
-41 140 -62 226 -122 330 -232 160 -169 221 -337 192 -531 -34 -226 -183 -436
-463 -652 -276 -212 -319 -248 -396 -323 -183 -182 -282 -349 -356 -605 -22
-75 -28 -128 -41 -368 -19 -342 -16 -427 22 -497 35 -63 91 -114 163 -148 49
-23 69 -26 156 -26 95 0 103 2 163 34 75 41 127 96 140 148 6 21 13 104 16
184 4 80 13 190 21 243 30 198 134 396 282 537 85 80 102 93 357 279 260 190
404 337 511 525 128 225 190 511 166 761 -47 475 -274 914 -600 1160 -207 156
-463 250 -811 299 -139 20 -417 27 -520 15z"/>
<path d="M1453 6663 c-122 -253 -202 -466 -268 -718 -193 -735 -171 -1511 65
-2230 472 -1439 1711 -2474 3211 -2684 930 -130 1891 83 2681 595 153 98 290
202 464 350 l24 20 -51 42 c-45 36 -55 41 -69 30 -10 -7 -63 -50 -118 -95
-567 -458 -1220 -730 -1982 -825 -141 -17 -679 -17 -820 0 -263 33 -525 88
-740 157 -1219 390 -2151 1345 -2511 2575 -149 508 -188 1090 -109 1621 57
376 169 740 338 1092 41 86 73 158 71 160 -2 1 -25 19 -51 40 -25 20 -48 37
-51 37 -2 0 -40 -75 -84 -167z"/>
<path d="M4943 3035 c-173 -47 -296 -183 -323 -358 -29 -190 73 -377 254 -463
266 -126 572 37 617 328 47 305 -251 573 -548 493z"/>
</g>
</svg>
