<?xml version="1.0" standalone="no"?>
<!DOCTYPE svg PUBLIC "-//W3C//DTD SVG 20010904//EN"
 "http://www.w3.org/TR/2001/REC-SVG-20010904/DTD/svg10.dtd">
<svg version="1.0" xmlns="http://www.w3.org/2000/svg"
 width="1000.000000pt" height="1000.000000pt" viewBox="0 0 1000.000000 1000.000000"
 preserveAspectRatio="xMidYMid meet">

<g transform="translate(0.000000,1000.000000) scale(0.100000,-0.100000)"
fill="#000000" stroke="none">
<path d="M4865 9339 c-1277 -61 -2474 -675 -3281 -1684 -106 -134 -315 -442
-391 -580 -481 -865 -667 -1819 -542 -2783 167 -1291 898 -2455 1986 -3166
616 -402 1302 -641 2043 -712 195 -18 589 -21 770 -4 601 54 1135 205 1662
471 973 492 1737 1330 2136 2345 211 537 312 1065 312 1641 0 1172 -445 2275
-1260 3117 -714 738 -1675 1213 -2690 1330 -133 16 -481 37 -550 34 -19 0
-107 -4 -195 -9z m665 -474 c1090 -129 2048 -662 2716 -1511 410 -522 695
-1163 803 -1809 76 -452 74 -926 -5 -1375 -256 -1456 -1293 -2652 -2703 -3117
-426 -141 -798 -198 -1271 -197 -364 1 -613 31 -953 115 -1514 373 -2681 1605
-2977 3144 -42 217 -61 404 -67 656 -12 495 49 907 202 1366 343 1033 1086
1879 2060 2349 456 219 933 349 1445 394 152 13 591 4 750 -15z"/>
<path d="M4780 8594 c-19 -2 -80 -9 -135 -15 -210 -22 -487 -81 -700 -149
-212 -68 -522 -202 -701 -306 -113 -65 -285 -177 -282 -184 5 -12 132 -120
141 -120 5 0 29 14 55 32 74 51 259 155 370 209 493 238 981 350 1527 352 246
1 375 -10 604 -49 915 -156 1723 -666 2268 -1429 327 -459 539 -1004 620
-1600 25 -185 25 -666 -1 -850 -56 -411 -176 -809 -340 -1133 l-25 -50 69 -61
c37 -34 71 -61 74 -61 8 0 76 138 131 266 453 1052 395 2246 -156 3247 -90
164 -239 387 -355 532 -189 236 -529 551 -792 733 -465 321 -1027 535 -1622
618 -109 15 -660 28 -750 18z"/>
<path d="M4835 7694 c-320 -50 -611 -182 -854 -388 -278 -235 -489 -616 -563
-1014 -20 -109 -22 -143 -19 -513 l2 -397 -80 -3 c-78 -4 -82 -5 -118 -42
l-38 -37 -3 -1368 c-3 -1528 -9 -1407 67 -1455 l36 -22 1805 0 1805 0 35 22
c19 12 44 37 55 55 19 32 19 59 20 1348 0 723 -2 1339 -5 1368 -5 44 -13 59
-43 90 -35 35 -41 37 -112 40 l-75 4 2 347 c2 314 0 359 -20 486 -36 227 -103
477 -171 629 -55 126 -249 358 -405 485 -250 204 -546 330 -876 370 -115 15
-335 12 -445 -5z m473 -440 c447 -79 817 -398 971 -838 55 -156 59 -208 53
-643 l-5 -393 -1253 0 -1254 0 0 68 c0 37 -5 184 -10 327 -12 302 -4 405 41
558 154 520 596 891 1117 936 107 10 230 4 340 -15z m1372 -3334 l0 -1160
-1610 0 -1610 0 0 1160 0 1160 1610 0 1610 0 0 -1160z"/>
<path d="M4930 4211 c-85 -28 -142 -84 -165 -166 -24 -81 -1 -168 59 -224 14
-14 26 -34 26 -45 0 -12 -25 -81 -55 -155 -42 -102 -52 -137 -44 -148 17 -19
481 -19 498 1 9 10 2 36 -30 112 -53 129 -69 173 -69 191 0 8 18 35 39 60 98
111 62 286 -73 355 -44 22 -145 33 -186 19z m178 -88 c92 -69 94 -207 6 -288
l-35 -33 46 -118 c53 -134 57 -157 33 -162 -23 -5 -41 27 -88 151 -59 156 -59
160 -16 187 46 28 66 66 66 126 0 39 -5 51 -33 79 -19 19 -47 37 -63 40 -50
11 -54 14 -54 34 0 11 6 21 13 24 23 7 92 -14 125 -40z"/>
<path d="M6560 4111 c-6 -13 -10 -224 -10 -615 l0 -596 -607 -2 -608 -3 0 -25
0 -25 628 -5 c346 -3 635 -1 643 3 12 7 14 101 14 628 0 409 -4 627 -10 640
-6 10 -17 19 -25 19 -8 0 -19 -9 -25 -19z"/>
<path d="M1841 6713 c-235 -420 -386 -890 -447 -1393 -22 -176 -25 -609 -6
-775 85 -750 369 -1431 824 -1980 849 -1025 2166 -1515 3476 -1294 542 91
1078 315 1529 638 54 39 111 81 126 94 l29 23 -72 62 -72 62 -26 -20 c-323
-249 -759 -471 -1147 -583 -687 -199 -1422 -188 -2085 34 -1209 402 -2096
1405 -2344 2649 -50 248 -60 364 -60 680 0 322 10 429 64 700 59 290 151 560
280 825 43 88 91 181 106 208 l27 47 -24 26 c-13 14 -45 44 -71 65 l-46 39
-61 -107z"/>
</g>
</svg>
