<?xml version="1.0" standalone="no"?>
<!DOCTYPE svg PUBLIC "-//W3C//DTD SVG 20010904//EN"
 "http://www.w3.org/TR/2001/REC-SVG-20010904/DTD/svg10.dtd">
<svg version="1.0" xmlns="http://www.w3.org/2000/svg"
 width="1000.000000pt" height="1000.000000pt" viewBox="0 0 1000.000000 1000.000000"
 preserveAspectRatio="xMidYMid meet">

<g transform="translate(0.000000,1000.000000) scale(0.100000,-0.100000)"
fill="#000000" stroke="none">
<path d="M2129 8606 c-2 -2 -76 -6 -164 -10 -161 -6 -260 -14 -525 -42 -300
-31 -496 -56 -527 -65 -51 -16 -99 -78 -113 -144 -17 -81 -7 -114 67 -223 85
-126 101 -145 186 -220 175 -153 367 -219 727 -247 159 -12 215 -14 540 -21
184 -4 336 -7 336 -8 6 -4 14 -1545 16 -2886 l3 -1574 -90 -31 c-100 -34 -211
-91 -265 -137 -19 -16 -52 -44 -73 -61 -88 -74 -186 -229 -231 -368 -130 -404
48 -844 424 -1046 165 -89 391 -124 568 -87 146 30 207 55 339 142 168 109
311 312 352 497 6 28 15 71 21 97 14 65 6 259 -15 336 -85 321 -320 558 -635
641 l-65 17 -3 197 c-2 154 0 197 10 197 228 7 4769 -8 4776 -15 3 -2 -67
-254 -87 -315 -5 -14 -14 -44 -21 -67 l-13 -43 -66 0 c-283 0 -567 -153 -728
-390 -111 -164 -164 -375 -142 -572 23 -200 85 -349 204 -485 103 -118 174
-171 308 -232 75 -34 108 -44 233 -70 47 -9 220 -7 274 3 105 21 192 51 260
89 25 14 63 36 84 48 55 30 194 172 241 244 61 96 102 195 125 306 19 87 21
123 16 219 -11 222 -82 396 -226 553 -55 61 -182 161 -224 177 -14 5 -26 13
-26 17 0 5 14 55 31 113 16 58 38 134 49 170 10 36 53 182 95 325 42 143 85
292 96 330 11 39 24 84 29 100 5 17 14 47 19 68 23 79 30 105 59 202 59 196
105 353 172 585 38 129 98 336 135 460 37 124 71 239 75 255 5 17 13 46 19 65
5 19 14 51 20 70 5 19 20 69 31 110 12 41 26 89 30 105 5 17 22 75 38 130 125
420 165 554 173 583 5 17 13 47 18 65 13 44 29 100 40 140 5 17 23 76 41 131
43 134 31 199 -50 252 -33 22 -51 26 -112 27 -107 1 -1193 -13 -1468 -18 -129
-3 -444 -7 -700 -10 -256 -3 -589 -7 -740 -10 -151 -3 -473 -7 -715 -10 -242
-3 -550 -7 -685 -10 -135 -3 -456 -7 -715 -10 -258 -3 -585 -8 -727 -11 l-256
-5 -4 623 -3 623 -25 45 c-15 27 -41 53 -65 67 -40 23 -43 23 -406 23 -202 -1
-368 -2 -370 -4z m519 -374 c16 -54 16 -237 0 -249 -32 -24 -849 3 -1038 33
-76 12 -208 58 -260 89 -54 33 -112 85 -95 85 5 0 63 6 130 14 344 42 626 59
1026 64 l226 3 11 -39z m6142 -1267 c0 -3 -16 -61 -36 -128 -32 -112 -62 -216
-84 -292 -4 -16 -17 -57 -27 -90 l-19 -60 -224 -2 c-124 -2 -230 0 -236 5 -12
8 -284 535 -284 551 0 7 76 12 223 13 122 2 327 5 455 6 127 2 232 1 232 -3z
m-1065 -228 c60 -117 123 -240 142 -275 18 -35 33 -66 33 -68 0 -2 -155 -4
-344 -4 l-344 0 -98 153 c-54 83 -131 203 -171 264 -40 62 -73 117 -73 122 0
15 36 17 375 20 181 1 331 4 333 6 18 18 51 -30 147 -218z m-1135 191 c22 -25
340 -523 340 -532 0 -4 -147 -5 -327 -4 l-327 3 -60 90 c-141 210 -286 432
-286 438 0 4 71 8 158 9 86 2 232 4 323 6 129 3 170 0 179 -10z m-940 -13 c13
-8 340 -503 340 -515 0 -7 -134 -9 -371 -8 l-371 3 -66 95 c-166 241 -272 400
-274 412 -2 10 58 14 297 18 330 5 430 4 445 -5z m-1008 -42 c15 -21 92 -134
172 -252 80 -117 146 -218 146 -222 0 -5 -168 -9 -374 -9 l-374 0 -114 160
c-62 89 -141 200 -175 248 -34 48 -62 90 -62 94 -1 9 89 12 460 16 l295 3 26
-38z m-1086 23 c11 -3 40 -34 64 -68 24 -35 99 -141 167 -236 68 -94 126 -179
129 -187 6 -13 -43 -15 -406 -13 l-413 3 -49 63 -48 63 0 184 0 184 108 3
c261 7 429 8 448 4z m498 -678 c31 -46 85 -122 119 -170 34 -48 117 -165 184
-260 67 -95 142 -200 167 -233 24 -33 42 -63 40 -67 -3 -5 -173 -8 -377 -8
l-372 0 -57 73 c-31 39 -119 151 -195 248 -280 357 -383 490 -383 495 0 2 184
4 408 4 l408 0 58 -82z m1033 4 c28 -42 84 -124 123 -182 40 -58 115 -168 168
-245 53 -77 120 -175 149 -217 29 -43 53 -80 53 -83 0 -3 -164 -5 -364 -5
l-364 0 -78 110 c-44 60 -113 158 -155 217 -42 59 -128 180 -190 268 -63 88
-122 172 -132 188 l-17 27 377 0 378 0 52 -78z m1048 -30 c38 -59 154 -235
257 -391 103 -156 188 -288 188 -293 0 -4 -162 -7 -362 -6 l-362 3 -71 102
c-38 56 -104 152 -145 213 -41 60 -94 138 -118 173 -24 34 -79 114 -122 177
-44 63 -80 118 -80 123 0 4 168 7 373 7 l372 -1 70 -107z m910 30 c27 -42 94
-147 148 -232 54 -85 109 -171 122 -190 104 -160 175 -273 175 -281 0 -5 -123
-9 -314 -9 l-315 0 -254 383 c-139 210 -257 388 -261 395 -6 9 61 12 321 12
l328 0 50 -78z m976 -62 c39 -74 129 -249 200 -387 l130 -253 -268 -1 c-147 0
-276 -2 -286 -4 -27 -5 5 -52 -449 663 l-78 122 341 -2 340 -3 70 -135z m569
126 c0 -8 -20 -81 -44 -163 -25 -81 -54 -181 -66 -222 -12 -40 -25 -70 -30
-65 -4 5 -61 111 -125 237 l-117 227 191 0 c158 0 191 -2 191 -14z m-5465
-298 c61 -77 154 -198 208 -267 54 -69 106 -135 115 -146 44 -50 71 -92 65
-98 -3 -4 -120 -7 -260 -7 l-253 0 0 330 c0 182 3 330 8 330 4 -1 57 -64 117
-142z m5215 -563 c0 -3 -27 -99 -61 -213 -63 -215 -77 -262 -86 -299 -11 -45
3 -63 -253 337 -55 85 -100 161 -100 168 0 9 57 12 250 12 138 0 250 -2 250
-5z m-1697 -14 c9 -1 577 -857 577 -871 0 -16 -682 -13 -702 3 -9 6 -65 84
-125 172 -180 267 -243 359 -355 522 -60 86 -108 160 -108 164 0 7 639 18 690
12 8 -1 18 -2 23 -2z m997 -118 c173 -272 263 -411 318 -498 123 -192 135
-213 128 -240 l-6 -25 -285 0 -284 0 -56 83 c-138 202 -525 793 -525 799 0 5
141 8 314 8 l315 0 81 -127z m-1991 101 c9 -10 110 -156 296 -429 66 -97 157
-230 203 -296 45 -66 82 -125 82 -130 0 -11 -679 -12 -696 -1 -10 6 -125 164
-364 502 -37 52 -109 154 -159 225 l-93 130 319 5 c395 6 401 6 412 -6z
m-1007 -11 c8 -7 32 -38 54 -70 21 -32 66 -96 100 -143 33 -47 116 -164 184
-260 68 -96 152 -214 187 -263 35 -48 66 -94 69 -102 5 -13 -37 -15 -329 -15
-377 0 -339 -8 -414 85 -22 28 -92 116 -154 196 -309 397 -421 539 -430 544
-5 4 -9 13 -9 20 0 12 48 15 303 17 423 4 423 4 439 -9z m-979 -83 c38 -47
112 -141 166 -210 53 -69 172 -221 264 -338 92 -117 167 -215 167 -217 0 -3
-142 -5 -315 -5 -292 0 -316 1 -332 18 -25 26 -27 28 -335 414 -246 307 -278
351 -278 382 l0 36 273 2 c149 2 283 3 297 3 19 -1 41 -21 93 -85z m-498 -564
c85 -107 155 -197 155 -200 0 -3 -72 -6 -160 -6 l-160 0 0 200 c0 110 2 200 5
200 2 0 74 -87 160 -194z m239 -298 c6 -7 129 -162 269 -336 81 -102 147 -188
147 -193 0 -5 -760 -6 -812 0 -5 1 -8 120 -8 265 l0 265 38 3 c47 4 363 1 366
-4z m898 3 c34 -1 42 -7 117 -103 44 -57 136 -175 205 -263 69 -88 126 -163
126 -168 0 -4 -141 -6 -312 -5 l-313 3 -212 265 -212 265 32 5 c26 4 404 5
569 1z m1003 0 c6 -1 22 -18 36 -39 14 -20 98 -139 187 -264 89 -126 162 -230
162 -233 0 -3 -143 -5 -318 -5 l-317 0 -97 123 c-53 67 -128 163 -167 212 -38
50 -90 116 -115 147 -25 31 -41 58 -36 60 9 3 637 1 665 -1z m1003 -8 c4 -6
51 -75 105 -154 54 -79 134 -196 177 -259 43 -63 77 -117 75 -118 -2 -2 -156
-3 -342 -3 -305 2 -340 3 -355 19 -9 9 -44 58 -79 107 -34 50 -92 132 -128
183 -130 182 -160 226 -156 232 6 10 697 3 703 -7z m989 1 c2 -5 82 -126 177
-269 96 -143 172 -263 170 -266 -2 -3 -157 -5 -345 -4 -272 2 -344 6 -354 16
-7 8 -41 57 -77 109 -35 52 -112 166 -171 252 -59 86 -107 159 -107 162 0 9
59 11 380 10 181 -1 325 -5 327 -10z m748 4 c5 -5 -131 -487 -139 -496 -3 -2
-79 108 -170 244 -117 176 -161 250 -151 254 18 6 454 4 460 -2z m-4959 -1658
c354 -178 405 -654 96 -900 -72 -58 -137 -87 -235 -105 -187 -35 -363 25 -495
169 -102 112 -154 281 -132 424 27 171 134 330 270 401 72 37 70 40 70 -139 0
-140 3 -166 20 -199 48 -96 182 -117 264 -42 50 45 56 75 56 256 0 131 3 165
13 165 8 0 40 -13 73 -30z m4469 -42 c-4 -18 -17 -64 -29 -103 -58 -180 -58
-221 0 -285 95 -104 260 -64 294 71 29 117 77 259 86 259 19 0 112 -96 148
-153 134 -211 103 -489 -74 -664 -164 -164 -414 -204 -617 -102 -335 170 -397
623 -119 877 79 71 203 128 289 131 27 1 28 -1 22 -31z"/>
<path d="M3142 2604 c-27 -19 -28 -53 -2 -87 66 -84 92 -205 66 -307 -51 -198
-247 -312 -439 -256 -63 18 -91 12 -102 -24 -15 -46 25 -73 132 -89 98 -15
222 8 302 57 51 31 129 110 159 161 85 145 84 329 -3 477 -23 39 -68 84 -84
84 -4 0 -17 -7 -29 -16z"/>
<path d="M7950 2503 c-36 -14 -39 -51 -10 -111 65 -134 36 -295 -72 -398 -101
-97 -240 -125 -371 -75 -43 17 -65 13 -82 -13 -37 -56 43 -106 185 -114 136
-7 234 27 333 118 150 137 190 358 98 537 -17 35 -49 66 -63 62 -2 0 -10 -3
-18 -6z"/>
</g>
</svg>
