<?xml version="1.0" standalone="no"?>
<!DOCTYPE svg PUBLIC "-//W3C//DTD SVG 20010904//EN"
 "http://www.w3.org/TR/2001/REC-SVG-20010904/DTD/svg10.dtd">
<svg version="1.0" xmlns="http://www.w3.org/2000/svg"
 width="1000.000000pt" height="1000.000000pt" viewBox="0 0 1000.000000 1000.000000"
 preserveAspectRatio="xMidYMid meet">

<g transform="translate(0.000000,1000.000000) scale(0.100000,-0.100000)"
fill="#000000" stroke="none">
<path d="M6205 9306 c-79 -29 -134 -127 -116 -207 24 -106 100 -159 228 -159
65 0 266 -34 357 -61 510 -148 922 -492 1151 -963 102 -208 156 -411 179 -664
15 -157 19 -169 90 -226 33 -27 46 -31 100 -31 78 0 134 33 167 97 20 39 21
53 16 168 -17 355 -145 744 -347 1054 -381 585 -1007 954 -1695 1000 -67 5
-100 2 -130 -8z"/>
<path d="M6210 8675 c-46 -21 -68 -42 -91 -87 -23 -45 -25 -127 -5 -167 19
-36 80 -89 109 -95 12 -3 71 -14 131 -26 247 -47 458 -161 641 -345 194 -195
307 -425 350 -711 17 -118 30 -150 75 -188 64 -53 159 -56 229 -6 79 57 91
142 51 341 -117 577 -520 1038 -1070 1222 -191 65 -359 89 -420 62z"/>
<path d="M6224 7931 c-62 -28 -97 -80 -102 -152 -3 -34 1 -72 8 -89 16 -39 82
-98 117 -105 198 -41 294 -107 358 -247 13 -29 29 -85 34 -123 12 -80 46 -137
101 -166 39 -21 113 -25 157 -8 34 13 80 55 99 91 20 39 17 151 -6 238 -77
280 -294 494 -570 560 -105 25 -143 25 -196 1z"/>
<path d="M2114 7290 c-31 -12 -72 -66 -79 -103 -3 -18 -4 -1445 -3 -3172 3
-3008 4 -3142 21 -3168 10 -16 32 -37 50 -47 32 -20 64 -20 2080 -18 l2049 3
33 37 c19 20 39 54 44 76 8 28 10 977 9 3169 l-3 3129 -25 36 c-50 74 150 68
-2117 67 -1121 0 -2047 -4 -2059 -9z m3921 -3250 l0 -2985 -1860 0 -1860 0 -3
2975 c-1 1636 0 2981 3 2988 3 10 381 12 1862 10 l1858 -3 0 -2985z"/>
<path d="M5099 6761 c-37 -37 -39 -82 -5 -116 50 -50 122 -40 151 21 14 29 14
37 1 68 -26 64 -97 76 -147 27z"/>
<path d="M5413 6734 c-15 -24 -15 -29 -2 -53 11 -20 22 -26 49 -26 27 0 38 6
49 26 13 24 13 29 -2 53 -12 18 -26 26 -47 26 -21 0 -35 -8 -47 -26z"/>
<path d="M3580 6710 c-25 -25 -25 -41 -1 -71 l19 -23 575 -4 575 -4 21 21 c27
27 27 46 -4 76 l-24 25 -571 0 c-557 0 -570 0 -590 -20z"/>
<path d="M2482 6368 c-9 -9 -12 -539 -12 -2324 0 -2089 2 -2314 16 -2328 14
-14 182 -16 1703 -16 1623 0 1689 1 1704 18 16 17 17 193 17 2324 0 2220 -1
2306 -18 2321 -17 16 -150 17 -1708 17 -1301 0 -1693 -3 -1702 -12z m3316
-2325 l-3 -2228 -1607 -3 -1608 -2 0 2230 0 2230 1610 0 1610 0 -2 -2227z"/>
<path d="M4058 1667 c-127 -36 -208 -147 -208 -284 0 -82 29 -150 86 -205 147
-141 382 -95 468 91 31 69 28 179 -6 246 -65 125 -208 189 -340 152z"/>
</g>
</svg>
