<?xml version="1.0" standalone="no"?>
<!DOCTYPE svg PUBLIC "-//W3C//DTD SVG 20010904//EN"
 "http://www.w3.org/TR/2001/REC-SVG-20010904/DTD/svg10.dtd">
<svg version="1.0" xmlns="http://www.w3.org/2000/svg"
 width="1000.000000pt" height="1000.000000pt" viewBox="0 0 1000.000000 1000.000000"
 preserveAspectRatio="xMidYMid meet">

<g transform="translate(0.000000,1000.000000) scale(0.100000,-0.100000)"
fill="#000000" stroke="none">
<path d="M4740 9520 c-678 -55 -1315 -249 -1915 -583 -127 -71 -412 -260 -530
-352 -319 -249 -614 -545 -843 -847 -534 -701 -850 -1528 -922 -2408 -16 -194
-14 -596 5 -783 135 -1388 871 -2616 2025 -3382 601 -398 1255 -636 2018 -732
197 -25 785 -25 994 0 1088 130 2069 613 2796 1375 1018 1068 1458 2534 1196
3986 -200 1110 -830 2129 -1743 2820 -655 496 -1435 801 -2296 896 -129 15
-649 21 -785 10z m765 -415 c512 -54 977 -191 1448 -426 417 -209 777 -475
1114 -823 624 -643 1027 -1486 1137 -2376 14 -117 18 -165 31 -412 7 -131 -10
-441 -35 -632 -70 -544 -248 -1071 -525 -1551 -110 -190 -237 -375 -384 -555
-119 -147 -452 -477 -601 -596 -648 -517 -1393 -821 -2220 -906 -266 -27 -706
-15 -1000 28 -1342 196 -2501 1038 -3113 2260 -216 431 -351 886 -413 1394
-28 226 -26 726 5 955 69 523 204 961 430 1400 684 1330 1988 2171 3501 2259
125 7 476 -3 625 -19z"/>
<path d="M4855 8863 c-697 -43 -1370 -267 -1940 -646 -66 -44 -130 -88 -143
-97 l-22 -18 41 -39 c23 -21 50 -46 61 -55 10 -10 23 -18 28 -18 6 0 68 38
138 84 794 523 1744 723 2690 565 1157 -192 2167 -938 2704 -1995 545 -1073
543 -2325 -5 -3397 -59 -117 -68 -140 -56 -151 8 -7 37 -34 65 -60 l52 -47 27
46 c51 89 163 321 213 445 157 391 256 824 277 1205 3 61 8 142 10 180 7 104
-12 427 -35 604 -87 649 -331 1259 -716 1788 -123 168 -207 267 -374 437 -489
499 -1079 847 -1762 1037 -381 106 -860 157 -1253 132z"/>
<path d="M3747 7745 c-381 -62 -698 -266 -904 -582 -393 -603 -225 -1411 377
-1807 304 -200 690 -266 1035 -176 66 18 129 34 140 37 17 4 45 -28 160 -187
77 -105 170 -233 208 -283 37 -51 92 -126 122 -167 88 -121 225 -308 465 -635
337 -459 373 -509 475 -650 213 -295 559 -762 584 -789 54 -59 160 -83 234
-52 18 7 66 37 107 67 42 30 200 137 353 239 152 102 277 189 277 195 0 17
-274 425 -287 425 -6 0 -130 -74 -275 -165 l-263 -165 -23 28 c-12 15 -34 44
-49 65 l-26 38 24 17 c13 9 52 35 86 57 354 225 432 278 426 289 -27 46 -165
246 -169 246 -3 0 -125 -77 -271 -171 -147 -95 -272 -172 -278 -173 -7 -1 -78
89 -159 199 -189 259 -280 382 -473 647 -385 527 -511 699 -573 783 -194 263
-270 368 -270 374 0 3 37 44 81 91 175 183 287 397 345 660 24 105 24 385 0
495 -59 279 -181 504 -374 692 -180 176 -417 300 -664 348 -116 23 -332 28
-441 10z m460 -104 c309 -66 584 -254 757 -515 132 -200 192 -383 203 -621 10
-208 -28 -396 -116 -580 -48 -100 -154 -260 -179 -270 -32 -12 -18 29 36 105
337 470 286 1112 -120 1520 -212 213 -479 330 -785 347 -108 6 -129 13 -105
38 12 12 209 -3 309 -24z m-85 -225 c200 -39 381 -136 525 -285 113 -115 187
-245 239 -416 26 -83 28 -104 28 -260 1 -204 -16 -283 -94 -440 -238 -481
-812 -683 -1296 -456 -259 122 -450 343 -529 616 -24 84 -46 244 -40 294 2 14
6 58 9 97 8 100 49 234 104 337 140 266 389 453 682 512 88 18 282 18 372 1z
m2775 -3787 c49 -79 51 -85 35 -100 -21 -20 -434 -286 -468 -301 -13 -6 -27
-8 -30 -5 -14 14 7 35 73 76 37 23 109 69 158 101 50 32 120 78 158 101 37 23
67 47 67 54 0 6 -18 40 -41 75 -37 58 -45 97 -17 88 7 -3 36 -42 65 -89z m283
-489 c55 -82 100 -156 100 -164 0 -8 -17 -27 -37 -43 -59 -45 -400 -263 -412
-263 -24 0 -9 37 22 55 116 68 377 247 377 258 0 8 -12 32 -28 53 -15 21 -56
83 -91 136 -57 88 -67 118 -41 118 6 0 55 -67 110 -150z"/>
<path d="M1645 6840 c-205 -365 -362 -822 -434 -1260 -38 -237 -46 -339 -45
-640 0 -244 4 -324 22 -460 47 -356 123 -653 249 -975 312 -792 894 -1477
1630 -1915 498 -298 1057 -481 1648 -541 255 -26 654 -14 935 27 554 81 1112
293 1579 602 l115 75 -65 59 c-35 31 -67 58 -71 58 -3 0 -39 -22 -80 -48 -485
-320 -1052 -523 -1663 -594 -168 -20 -646 -17 -820 5 -857 109 -1613 475
-2210 1072 -615 613 -988 1399 -1080 2269 -19 188 -20 566 0 751 51 479 174
896 391 1327 72 141 84 172 73 182 -8 7 -37 34 -66 60 l-51 47 -57 -101z"/>
</g>
</svg>
