<?xml version="1.0" standalone="no"?>
<!DOCTYPE svg PUBLIC "-//W3C//DTD SVG 20010904//EN"
 "http://www.w3.org/TR/2001/REC-SVG-20010904/DTD/svg10.dtd">
<svg version="1.0" xmlns="http://www.w3.org/2000/svg"
 width="1000.000000pt" height="1000.000000pt" viewBox="0 0 1000.000000 1000.000000"
 preserveAspectRatio="xMidYMid meet">

<g transform="translate(0.000000,1000.000000) scale(0.100000,-0.100000)"
fill="#000000" stroke="none">
<path d="M1945 7613 c-46 -11 -86 -37 -105 -68 -20 -32 -20 -47 -20 -1194 0
-638 -3 -1161 -7 -1161 -4 0 -43 36 -88 79 -81 80 -115 98 -157 87 -13 -3
-101 -88 -197 -188 -96 -101 -279 -291 -406 -423 -650 -675 -841 -878 -853
-906 -7 -17 -10 -43 -7 -58 4 -17 70 -88 193 -206 103 -98 295 -283 427 -410
221 -213 676 -649 1635 -1569 206 -198 414 -397 461 -443 87 -84 113 -96 162
-77 8 3 111 105 228 227 117 122 315 328 439 457 679 705 779 812 785 840 3
15 0 41 -7 57 -7 16 -120 132 -250 257 -131 126 -238 231 -238 235 0 4 926 7
2058 7 2330 0 2097 -9 2152 87 l30 52 0 2109 c0 2097 0 2109 -20 2141 -11 18
-37 41 -58 51 -36 18 -137 19 -3087 20 -1677 1 -3059 0 -3070 -3z m5895 -290
c-1 -5 -24 -26 -53 -48 -54 -41 -347 -272 -452 -357 -33 -26 -62 -48 -65 -48
-3 0 -14 13 -25 29 -36 55 -89 60 -115 11 -12 -23 -4 -47 28 -83 16 -16 22
-30 16 -35 -56 -50 -256 -202 -263 -202 -6 0 -18 11 -27 25 -12 18 -25 25 -48
25 -57 0 -74 -47 -36 -100 l20 -28 -68 -54 c-37 -30 -113 -91 -169 -136 -57
-45 -107 -82 -112 -82 -5 0 -19 13 -31 30 -27 38 -64 48 -90 25 -27 -24 -25
-61 5 -101 l25 -32 -113 -89 c-61 -49 -142 -112 -178 -141 l-66 -52 -42 50
c-45 53 -76 63 -105 34 -26 -25 -19 -62 20 -110 20 -25 35 -46 33 -48 -31 -30
-336 -266 -344 -266 -5 0 -21 16 -35 36 -33 46 -65 59 -96 39 -33 -22 -31 -63
6 -110 17 -21 30 -40 30 -43 0 -5 0 -5 -106 -89 -44 -34 -131 -102 -194 -152
-63 -50 -118 -91 -122 -91 -4 0 -6 27 -6 60 1 71 -11 90 -61 90 -51 0 -61 -14
-61 -87 0 -35 -3 -63 -8 -63 -4 0 -48 32 -97 71 -50 39 -143 112 -207 162 -64
51 -117 95 -118 99 0 4 13 22 28 40 36 42 44 65 32 88 -27 51 -76 44 -120 -15
-14 -19 -29 -35 -35 -35 -7 0 -316 238 -344 266 -2 2 13 23 33 48 39 48 46 85
20 110 -28 28 -57 19 -104 -34 l-45 -50 -71 58 c-40 31 -119 94 -178 140
l-106 84 25 32 c29 38 32 72 8 98 -24 27 -51 22 -86 -17 -17 -19 -34 -35 -39
-35 -4 0 -54 37 -111 82 -56 45 -132 106 -169 136 l-68 54 20 25 c22 29 26 73
8 91 -22 22 -74 14 -92 -13 -9 -14 -21 -25 -27 -25 -7 0 -188 138 -262 200 -4
4 6 24 23 45 16 21 30 44 30 52 0 17 -44 63 -61 63 -6 0 -29 -18 -52 -40 l-40
-40 -31 24 c-17 14 -81 64 -142 113 -61 48 -170 134 -241 190 -72 56 -136 109
-143 118 -11 13 275 15 2829 15 1562 0 2841 -3 2841 -7z m-5565 -344 c259
-205 314 -250 320 -259 4 -6 -7 -26 -24 -46 -49 -55 -39 -114 20 -114 19 0 40
13 68 42 37 39 41 41 58 27 10 -9 71 -57 135 -108 l118 -93 -20 -29 c-12 -15
-25 -31 -30 -34 -16 -10 -11 -57 7 -77 27 -30 58 -22 97 24 l35 43 33 -25 c87
-64 308 -243 308 -250 0 -4 -13 -24 -30 -45 -48 -60 -37 -115 22 -115 26 0 53
22 91 75 12 16 22 11 119 -66 57 -46 137 -109 176 -139 39 -30 71 -60 71 -66
1 -6 -14 -28 -32 -50 -41 -48 -50 -70 -37 -94 29 -54 76 -44 129 26 18 24 36
44 40 44 5 0 235 -180 315 -247 l28 -23 -46 -56 c-51 -62 -56 -84 -26 -114 29
-29 58 -25 88 11 15 18 38 45 52 60 l25 28 265 -210 c146 -115 271 -217 278
-226 7 -11 12 -51 12 -110 0 -102 7 -113 67 -113 46 0 53 15 53 117 0 84 2 96
23 116 12 12 105 87 206 167 101 80 216 171 255 202 l71 57 25 -28 c14 -15 37
-42 52 -60 30 -36 59 -40 88 -11 30 30 25 52 -26 114 l-46 56 30 25 c27 22
160 128 281 223 l34 26 33 -39 c19 -22 34 -43 34 -46 0 -3 12 -11 26 -17 29
-14 57 -3 74 28 13 24 4 46 -37 94 -18 22 -33 44 -32 50 0 6 32 36 71 66 39
30 119 93 176 139 97 77 107 82 119 66 38 -53 65 -75 91 -75 59 0 70 55 22
115 -16 21 -30 41 -30 45 0 4 42 40 93 81 50 40 125 99 165 131 40 32 77 58
81 58 4 0 22 -18 40 -40 35 -43 63 -51 93 -23 19 17 25 68 8 78 -5 3 -18 19
-30 34 l-20 29 118 93 c64 51 125 99 135 108 17 14 21 12 58 -27 86 -90 168
-19 87 74 l-33 37 45 38 c94 80 424 338 428 335 5 -5 4 -3627 -1 -3632 -2 -2
-959 -4 -2126 -4 l-2122 0 -477 458 c-262 252 -559 537 -659 633 l-182 174 -1
560 c0 308 -3 767 -6 1020 -6 458 -8 481 -39 472 -7 -3 -12 -348 -15 -996 l-5
-992 -53 54 -53 53 0 1050 c1 577 1 1073 1 1103 0 41 3 51 13 44 6 -5 66 -52
132 -104z m556 -3019 c673 -646 1261 -1210 1307 -1254 45 -43 82 -83 82 -88 0
-4 -109 -122 -243 -261 -134 -138 -420 -436 -637 -662 -216 -225 -395 -409
-397 -408 -6 2 -93 85 -638 608 -264 254 -716 688 -1005 965 -856 822 -981
943 -978 951 2 4 30 36 63 71 98 104 530 554 660 688 66 69 217 225 334 348
118 122 217 221 221 220 4 -2 558 -532 1231 -1178z"/>
<path d="M7727 4484 c-4 -4 -7 -200 -7 -436 l0 -428 -232 0 c-532 -1 -1234
-12 -1242 -20 -5 -5 -6 -16 -3 -24 6 -15 83 -16 769 -14 l763 3 0 460 c0 455
0 460 -20 463 -12 2 -24 0 -28 -4z"/>
<path d="M1499 4854 c-17 -21 0 -49 32 -49 18 0 25 6 27 24 6 38 -34 55 -59
25z"/>
<path d="M1234 4368 c-258 -271 -508 -534 -556 -584 -53 -54 -88 -99 -88 -112
0 -14 118 -132 373 -373 204 -195 422 -402 482 -460 61 -58 335 -319 610 -579
275 -261 530 -502 567 -537 57 -55 70 -63 87 -54 17 10 230 231 770 801 107
113 230 242 273 286 43 45 78 88 78 96 0 11 -1116 1084 -1319 1268 -15 14
-196 185 -401 380 -205 195 -380 356 -390 358 -12 2 -164 -150 -486 -490z
m826 87 c1623 -1541 1680 -1595 1680 -1606 0 -7 -413 -445 -1000 -1061 l-45
-46 -616 586 c-339 323 -793 756 -1010 962 -217 206 -394 378 -394 383 0 5
234 256 520 557 l520 548 25 -21 c13 -12 157 -148 320 -302z"/>
<path d="M1376 4774 c-33 -32 -10 -94 35 -94 21 0 59 33 59 53 0 46 -62 73
-94 41z"/>
<path d="M991 4379 c-185 -192 -241 -256 -239 -272 8 -56 39 -32 278 215 279
289 266 273 250 293 -7 8 -20 15 -29 15 -10 0 -126 -113 -260 -251z"/>
<path d="M3346 2240 c-90 -27 -136 -153 -83 -230 49 -72 115 -95 193 -65 125
48 132 226 10 284 -45 22 -73 25 -120 11z m111 -84 c39 -34 39 -98 0 -132 -61
-52 -147 -15 -147 64 0 81 85 121 147 68z"/>
</g>
</svg>
