<?xml version="1.0" standalone="no"?>
<!DOCTYPE svg PUBLIC "-//W3C//DTD SVG 20010904//EN"
 "http://www.w3.org/TR/2001/REC-SVG-20010904/DTD/svg10.dtd">
<svg version="1.0" xmlns="http://www.w3.org/2000/svg"
 width="1000.000000pt" height="1000.000000pt" viewBox="0 0 1000.000000 1000.000000"
 preserveAspectRatio="xMidYMid meet">

<g transform="translate(0.000000,1000.000000) scale(0.100000,-0.100000)"
fill="#000000" stroke="none">
<path d="M4919 8936 c-24 -13 -244 -155 -489 -316 -245 -161 -481 -316 -525
-344 l-80 -51 -447 -5 c-590 -7 -541 27 -548 -377 l-5 -276 -382 -251 c-211
-138 -438 -287 -505 -331 -74 -48 -132 -94 -145 -114 l-23 -34 2 -2313 3
-2313 21 -28 c11 -15 36 -38 54 -50 l33 -23 3117 0 3117 0 33 23 c18 12 43 35
54 50 l21 28 2 2312 c3 2291 3 2312 -17 2344 -24 39 14 13 -565 393 l-470 308
-5 275 c-6 303 -5 300 -74 351 -26 20 -43 21 -474 26 l-447 5 -80 51 c-44 28
-186 121 -315 206 -779 513 -722 478 -783 478 -19 0 -54 -11 -78 -24z m334
-509 c127 -84 249 -163 270 -176 20 -12 37 -25 37 -27 0 -2 -253 -4 -562 -4
l-563 0 280 185 c154 102 286 183 293 180 7 -2 117 -73 245 -158z m1587 -1551
c0 -951 -1 -1015 -17 -1033 -10 -11 -74 -72 -143 -134 -265 -243 -753 -691
-928 -852 -100 -93 -187 -167 -192 -165 -5 2 -98 82 -206 178 -261 232 -258
230 -353 230 -56 0 -84 -5 -106 -19 -16 -10 -122 -100 -235 -200 -113 -100
-211 -185 -218 -188 -7 -3 -42 23 -80 58 -37 35 -119 111 -182 169 -63 58
-146 134 -185 170 -39 36 -120 110 -180 166 -61 55 -167 153 -237 217 -71 64
-185 169 -255 233 -71 64 -136 126 -145 137 -17 18 -18 82 -18 1033 l0 1014
1840 0 1840 0 0 -1014z m-4010 -211 c0 -272 -3 -495 -6 -495 -3 0 -138 123
-301 273 -163 149 -307 281 -321 293 l-25 21 214 133 c118 74 261 164 319 202
58 37 108 68 113 68 4 0 7 -223 7 -495z m4539 377 c102 -66 246 -156 320 -202
128 -79 132 -83 115 -100 -169 -157 -624 -570 -628 -570 -3 0 -6 223 -6 495 0
272 3 495 6 495 4 0 90 -53 193 -118z m-4348 -1512 c1079 -991 1154 -1061
1154 -1070 0 -5 -22 -27 -48 -50 l-48 -42 -68 66 c-77 74 -106 82 -146 41 -38
-38 -32 -60 41 -135 l65 -68 -108 -96 -108 -96 -55 55 c-61 61 -95 70 -130 35
-31 -31 -24 -63 25 -123 25 -31 45 -59 44 -64 -1 -10 -245 -223 -256 -223 -5
0 -33 25 -63 55 -60 61 -89 69 -127 33 -34 -32 -28 -60 29 -128 l51 -62 -24
-23 c-57 -56 -255 -225 -264 -225 -6 0 -37 27 -70 60 -65 66 -99 76 -135 40
-35 -35 -26 -66 42 -136 36 -38 58 -68 52 -73 -100 -91 -275 -241 -282 -241
-4 0 -32 25 -62 55 -59 60 -102 72 -132 38 -39 -46 -30 -76 39 -136 23 -21 43
-44 43 -52 0 -10 -189 -184 -337 -308 l-33 -28 0 1866 0 1866 34 -28 c18 -15
413 -377 877 -803z m4867 -1963 l-3 -935 -180 158 c-99 88 -181 164 -184 171
-2 6 17 30 41 53 71 64 79 93 40 139 -30 34 -73 22 -132 -38 -30 -30 -58 -55
-63 -55 -5 0 -68 53 -140 117 -73 64 -136 120 -141 125 -6 4 17 35 52 72 68
70 77 101 42 136 -36 36 -70 26 -135 -40 -33 -33 -64 -60 -70 -60 -5 0 -64 48
-130 106 -180 158 -167 132 -106 204 56 68 62 92 29 127 -35 38 -67 30 -128
-32 -30 -30 -58 -55 -63 -55 -9 0 -242 203 -252 220 -3 6 14 35 39 66 50 61
57 93 26 124 -35 35 -69 26 -130 -34 l-55 -55 -108 96 -108 96 66 67 c72 75
78 97 40 135 -40 41 -69 33 -146 -41 l-69 -67 -47 44 c-27 24 -48 47 -48 50 0
8 70 73 715 665 294 270 717 658 940 863 l405 372 3 -930 c1 -511 1 -1350 0
-1864z m-2727 1025 c425 -375 504 -446 507 -457 1 -6 -20 -32 -47 -58 -27 -26
-53 -57 -56 -68 -10 -32 25 -73 65 -77 29 -3 41 4 91 54 54 53 60 56 76 43 10
-9 63 -55 118 -104 55 -49 102 -90 104 -91 2 -2 -22 -33 -53 -69 -31 -36 -56
-74 -56 -84 0 -32 39 -71 71 -71 23 0 42 13 86 60 31 33 60 59 64 58 5 -2 65
-52 133 -112 l125 -109 -74 -81 c-81 -88 -92 -119 -55 -156 39 -39 70 -27 154
60 46 47 83 77 90 73 20 -12 266 -235 266 -241 0 -3 -31 -38 -70 -78 -38 -39
-70 -77 -70 -84 0 -16 20 -53 34 -62 6 -4 25 -8 41 -8 25 0 44 14 100 70 38
39 72 70 75 70 3 -1 28 -21 55 -46 28 -25 89 -80 138 -122 48 -42 87 -80 87
-84 0 -4 -31 -39 -70 -76 -58 -56 -70 -73 -70 -100 0 -39 30 -72 66 -72 19 0
47 21 104 76 57 55 82 74 93 67 8 -4 80 -66 160 -138 l147 -130 -1295 -3
c-712 -1 -1877 -1 -2589 0 l-1295 3 146 130 c81 72 153 134 160 138 11 7 37
-12 93 -67 84 -82 113 -93 150 -56 40 40 27 77 -50 153 -39 38 -70 72 -70 77
0 5 11 17 24 27 13 10 77 65 141 122 l116 104 72 -71 c58 -57 79 -72 102 -72
36 0 48 8 64 38 17 33 9 50 -64 122 -35 36 -65 68 -65 71 0 7 244 228 267 242
8 5 40 -22 89 -73 83 -87 115 -99 154 -60 36 36 26 67 -51 152 -39 43 -69 82
-67 87 4 11 240 221 249 221 3 0 31 -27 63 -60 44 -46 65 -60 86 -60 31 0 70
39 70 71 0 10 -25 48 -56 84 -31 36 -55 67 -53 69 5 3 183 160 217 190 l22 20
59 -58 c50 -50 62 -57 91 -54 40 4 75 45 65 77 -3 11 -29 42 -56 68 -27 26
-48 52 -47 58 2 6 81 81 177 166 397 350 486 429 491 429 3 0 75 -62 161 -138z"/>
<path d="M4920 7544 c-187 -21 -303 -54 -442 -126 -285 -149 -481 -414 -550
-748 -16 -78 -19 -121 -15 -235 6 -165 26 -245 93 -377 179 -345 532 -560 924
-560 252 0 442 74 717 281 140 105 163 136 143 197 -15 46 -54 74 -101 74 -30
0 -52 -11 -116 -60 -261 -202 -403 -267 -603 -277 -237 -12 -454 72 -626 242
-189 187 -259 418 -206 675 74 361 334 619 690 686 119 22 337 15 440 -15 226
-66 388 -213 449 -408 22 -73 25 -96 21 -176 -9 -146 -61 -256 -150 -314 -37
-25 -50 -28 -125 -28 -55 1 -87 5 -92 13 -4 7 -15 132 -25 280 -22 344 -23
350 -57 384 -21 22 -37 28 -70 28 -36 0 -47 -6 -79 -38 l-36 -39 -40 14 c-21
8 -70 17 -109 20 -216 17 -422 -127 -486 -339 -18 -58 -21 -87 -17 -169 5 -90
9 -106 43 -176 131 -266 461 -355 703 -189 l48 34 74 -20 c58 -15 98 -18 175
-15 87 3 109 8 168 37 110 52 194 154 249 303 26 69 32 100 36 200 7 180 -24
298 -116 442 -121 190 -334 328 -583 379 -76 15 -267 27 -329 20z m107 -740
c18 -7 48 -25 67 -39 32 -24 34 -28 40 -113 3 -48 9 -121 12 -162 6 -72 5 -77
-21 -108 -74 -89 -219 -114 -323 -57 -224 122 -171 440 83 498 29 7 105 -3
142 -19z"/>
</g>
</svg>
