<?xml version="1.0" standalone="no"?>
<!DOCTYPE svg PUBLIC "-//W3C//DTD SVG 20010904//EN"
 "http://www.w3.org/TR/2001/REC-SVG-20010904/DTD/svg10.dtd">
<svg version="1.0" xmlns="http://www.w3.org/2000/svg"
 width="1001.000000pt" height="1000.000000pt" viewBox="0 0 1001.000000 1000.000000"
 preserveAspectRatio="xMidYMid meet">

<g transform="translate(0.000000,1000.000000) scale(0.100000,-0.100000)"
fill="#000000" stroke="none">
<path d="M4949 8536 c-20 -7 -53 -26 -75 -43 -21 -17 -262 -185 -534 -374
-462 -320 -776 -538 -2775 -1927 -423 -295 -792 -553 -818 -575 -64 -53 -80
-87 -75 -154 6 -66 29 -100 88 -130 44 -23 46 -23 517 -23 l473 0 2 -2092 3
-2093 23 -40 c13 -22 39 -52 59 -65 l37 -25 3109 -3 c2230 -1 3121 1 3150 9
52 14 102 63 116 114 8 29 11 640 11 2118 l0 2077 473 0 c471 0 473 0 517 23
61 31 83 65 87 134 5 71 -13 103 -86 162 -28 21 -331 234 -673 472 -343 238
-659 458 -703 489 l-80 56 -5 795 c-6 889 0 822 -79 871 l-36 23 -547 0 c-536
0 -547 0 -574 -21 -15 -11 -37 -33 -48 -48 -20 -26 -21 -42 -24 -363 -2 -279
-5 -334 -17 -330 -7 3 -319 218 -692 478 -373 259 -692 478 -710 485 -40 17
-67 17 -114 0z m729 -839 c1793 -1246 2121 -1474 2177 -1515 33 -24 180 -123
327 -221 147 -98 286 -195 310 -215 24 -21 62 -49 85 -64 24 -15 43 -31 43
-35 0 -4 -170 -6 -377 -5 l-378 3 -1647 1100 c-906 605 -1646 1104 -1644 1110
3 10 416 303 429 304 5 1 309 -207 675 -462z m1782 -253 l0 -565 -87 60 c-49
33 -194 134 -323 224 l-235 163 -3 342 -2 342 325 0 325 0 0 -566z m-1497
-740 c854 -570 1559 -1043 1567 -1050 12 -12 -59 -14 -467 -14 l-480 0 -209
136 c-115 75 -231 151 -259 169 -132 87 -1938 1262 -2067 1345 -81 52 -146 98
-145 102 3 9 490 348 500 348 5 0 707 -466 1560 -1036z m-2096 492 c70 -46
628 -408 1238 -806 611 -397 1117 -728 1125 -736 13 -13 -43 -14 -425 -12
l-440 3 -512 340 c-282 187 -740 490 -1018 674 -278 184 -502 338 -498 342 9
9 396 279 400 279 1 0 60 -38 130 -84z m235 -927 c508 -336 927 -615 932 -620
6 -5 -194 -9 -511 -9 l-521 0 -642 467 c-627 457 -642 468 -619 483 13 8 111
77 218 152 108 75 201 137 208 137 6 1 427 -274 935 -610z m-988 -203 c297
-217 550 -402 561 -410 18 -14 -21 -15 -411 -16 l-431 0 -351 256 c-194 140
-352 259 -352 264 0 9 420 300 434 300 4 0 252 -177 550 -394z m-874 -214
c140 -102 262 -191 270 -198 12 -12 -75 -14 -555 -14 -491 0 -567 2 -555 14
16 15 63 48 341 241 218 152 222 154 234 147 6 -3 125 -89 265 -190z m5670
-2527 l0 -1985 -820 0 -820 0 0 1251 0 1251 -29 29 -29 29 -1167 0 -1167 0
-29 -29 -29 -29 0 -1251 0 -1251 -860 0 -860 0 0 1985 0 1985 2905 0 2905 0 0
-1985z m-1820 -795 l0 -1190 -1045 0 -1045 0 0 1190 0 1190 1045 0 1045 0 0
-1190z"/>
<path d="M2191 5166 c-8 -9 -10 -212 -9 -741 3 -681 4 -729 21 -739 12 -8 22
-8 35 0 16 10 17 58 22 710 l5 699 872 3 c835 2 873 3 882 21 7 13 6 24 -5 39
l-15 22 -898 0 c-746 0 -900 -2 -910 -14z"/>
<path d="M7716 4124 c-4 -9 -3 -592 0 -1295 l7 -1279 -580 0 c-627 0 -609 2
-601 -52 l3 -23 616 -3 c525 -2 618 0 628 12 22 26 10 2616 -12 2644 -14 17
-54 15 -61 -4z"/>
</g>
</svg>
