<?xml version="1.0" standalone="no"?>
<!DOCTYPE svg PUBLIC "-//W3C//DTD SVG 20010904//EN"
 "http://www.w3.org/TR/2001/REC-SVG-20010904/DTD/svg10.dtd">
<svg version="1.0" xmlns="http://www.w3.org/2000/svg"
 width="1000.000000pt" height="1000.000000pt" viewBox="0 0 1000.000000 1000.000000"
 preserveAspectRatio="xMidYMid meet">

<g transform="translate(0.000000,1000.000000) scale(0.100000,-0.100000)"
fill="#000000" stroke="none">
<path d="M7502 8390 c-40 -10 -114 -38 -165 -61 l-92 -41 -2285 -2284 -2285
-2284 -87 -208 c-48 -114 -213 -506 -367 -871 -155 -365 -281 -672 -281 -682
0 -10 16 -37 36 -59 28 -31 44 -40 68 -40 20 0 220 79 502 199 968 410 1233
521 1241 521 5 0 1039 1032 2299 2293 l2290 2292 42 92 c57 124 75 206 75 333
0 128 -25 227 -86 344 -34 68 -63 103 -172 211 -143 144 -200 182 -333 228
-118 40 -289 48 -400 17z m303 -162 c118 -26 218 -91 343 -222 132 -140 189
-283 179 -446 -6 -94 -31 -190 -50 -190 -18 0 -831 816 -824 827 8 13 77 32
148 43 60 8 128 4 204 -12z m-62 -575 l437 -437 -62 -63 c-34 -35 -67 -63 -73
-63 -6 0 -206 196 -445 435 l-434 435 64 65 c35 36 67 65 70 65 4 0 203 -197
443 -437z m-608 107 l80 -80 -1660 -1660 c-1407 -1407 -1658 -1663 -1649
-1677 33 -53 -50 -132 1697 1615 908 908 1659 1652 1667 1652 16 0 180 -159
180 -175 0 -5 -441 -451 -980 -990 -539 -539 -980 -985 -980 -991 0 -6 11 -21
25 -34 l26 -24 989 989 990 990 90 -90 c49 -49 90 -94 90 -100 0 -5 -100 -110
-222 -232 -187 -187 -221 -226 -212 -240 31 -50 33 -49 267 185 122 122 227
222 232 222 13 0 165 -152 165 -165 0 -16 -4095 -4107 -4103 -4099 -4 4 -7 80
-7 168 l0 161 1537 1537 c1303 1303 1536 1541 1527 1555 -33 53 43 125 -1577
-1494 l-1532 -1532 -195 -7 -195 -6 823 823 c452 453 822 830 822 838 0 18
-29 51 -44 51 -6 0 -384 -372 -839 -827 l-829 -828 6 120 c4 66 9 156 12 200
l6 80 74 75 c71 73 73 76 58 98 -8 12 -22 22 -31 22 -9 0 -54 -37 -100 -81
l-83 -82 -157 7 c-87 4 -160 9 -162 12 -8 8 4083 4094 4099 4094 9 0 51 -36
95 -80z m-3963 -4189 c5 -4 3 -102 -3 -219 -10 -192 -10 -215 5 -238 10 -14
27 -28 39 -33 12 -4 113 -3 224 2 111 5 209 7 218 3 13 -5 15 -30 13 -192 l-3
-187 -135 -58 c-531 -226 -684 -289 -696 -289 -15 0 -365 345 -382 376 -8 16
23 97 162 425 95 222 176 410 180 417 6 10 49 11 189 6 100 -4 185 -10 189
-13z m-457 -1251 c0 -23 -24 -37 -257 -155 -246 -124 -258 -129 -275 -112 -14
13 -15 21 -7 34 14 23 493 263 519 260 14 -1 20 -9 20 -27z"/>
</g>
</svg>
