<?xml version="1.0" standalone="no"?>
<!DOCTYPE svg PUBLIC "-//W3C//DTD SVG 20010904//EN"
 "http://www.w3.org/TR/2001/REC-SVG-20010904/DTD/svg10.dtd">
<svg version="1.0" xmlns="http://www.w3.org/2000/svg"
 width="1000.000000pt" height="1000.000000pt" viewBox="0 0 1000.000000 1000.000000"
 preserveAspectRatio="xMidYMid meet">

<g transform="translate(0.000000,1000.000000) scale(0.100000,-0.100000)"
fill="#000000" stroke="none">
<path d="M0 5000 l0 -5000 5000 0 5000 0 0 5000 0 5000 -5000 0 -5000 0 0
-5000z m7846 3380 c43 -11 117 -39 163 -63 71 -35 104 -61 206 -162 146 -144
183 -195 229 -325 37 -102 51 -224 37 -330 -13 -99 -33 -163 -85 -269 -35 -72
-97 -136 -2318 -2358 -1255 -1256 -2286 -2283 -2291 -2283 -7 0 -204 -81 -292
-120 -11 -5 -69 -29 -130 -55 -60 -25 -119 -50 -130 -55 -11 -5 -42 -18 -70
-30 -27 -12 -59 -25 -70 -30 -11 -5 -240 -101 -510 -215 -269 -113 -497 -209
-505 -214 -40 -22 -130 38 -130 87 0 19 58 166 125 317 8 17 57 134 110 260
53 127 102 244 110 260 7 17 39 91 70 165 31 74 60 144 65 155 18 40 49 112
89 210 23 55 46 109 51 120 19 43 49 113 80 192 l33 81 2171 2169 c1194 1192
2209 2204 2254 2248 46 44 92 92 103 107 28 39 220 126 334 151 59 13 226 6
301 -13z"/>
<path d="M7555 8243 c-58 -13 -115 -36 -115 -46 0 -20 818 -832 837 -832 32 0
57 95 57 220 1 124 -22 213 -75 293 -16 24 -29 46 -29 50 0 11 -200 204 -235
228 -46 31 -120 63 -182 79 -53 14 -211 19 -258 8z"/>
<path d="M7234 8048 c-31 -29 -60 -61 -66 -72 -9 -16 45 -74 428 -457 242
-242 446 -439 455 -439 16 0 139 121 139 137 -1 13 -876 883 -889 883 -7 0
-37 -24 -67 -52z"/>
<path d="M4977 5802 c-1126 -1126 -2047 -2053 -2047 -2060 0 -12 81 -17 277
-17 l63 0 77 78 c43 42 82 77 87 77 5 0 18 -8 28 -17 18 -16 16 -20 -56 -92
l-74 -76 -6 -110 c-4 -60 -9 -152 -12 -202 -4 -73 -2 -93 8 -93 7 0 384 371
838 825 l826 826 19 -21 c19 -21 18 -22 -808 -848 -455 -455 -827 -831 -827
-836 0 -7 222 -2 378 8 30 2 189 158 1563 1532 l1529 1529 22 -23 23 -22
-1538 -1538 -1537 -1537 0 -160 c0 -88 5 -167 10 -175 8 -12 436 411 2065
2040 1130 1130 2055 2060 2055 2065 0 13 -162 175 -175 175 -5 0 -110 -100
-231 -221 -161 -161 -227 -220 -238 -216 -45 18 -30 38 193 261 121 121 221
226 221 231 0 6 -42 52 -94 104 -80 80 -96 92 -112 83 -11 -6 -455 -448 -989
-981 -533 -534 -975 -971 -981 -971 -6 0 -17 7 -25 16 -11 13 117 145 969 997
540 540 982 989 982 997 0 9 -43 58 -95 110 l-95 95 -1660 -1660 -1660 -1660
-22 23 -23 22 1660 1660 1660 1660 -85 85 c-46 47 -91 85 -100 85 -8 0 -936
-921 -2063 -2048z"/>
<path d="M2796 3587 c-9 -7 -32 -48 -50 -92 -18 -44 -40 -96 -49 -115 -8 -19
-45 -107 -82 -195 -36 -88 -76 -180 -87 -205 -11 -25 -38 -87 -59 -139 l-38
-94 100 -108 c111 -119 291 -289 307 -289 6 0 90 34 189 76 98 41 221 93 273
116 52 22 119 51 148 64 29 13 55 24 58 24 7 0 90 36 134 58 l35 17 0 180 c0
99 -3 188 -8 199 -7 17 -17 18 -190 10 -265 -12 -264 -12 -288 13 -22 21 -22
23 -12 239 6 120 8 224 6 231 -4 10 -40 13 -137 14 -72 0 -154 2 -182 4 -31 3
-58 -1 -68 -8z"/>
<path d="M2420 2232 c-231 -115 -255 -129 -258 -154 -2 -19 3 -30 18 -38 23
-12 24 -12 335 142 99 49 188 97 198 105 29 27 15 74 -22 73 -9 -1 -131 -58
-271 -128z"/>
</g>
</svg>
