<?xml version="1.0" standalone="no"?>
<!DOCTYPE svg PUBLIC "-//W3C//DTD SVG 20010904//EN"
 "http://www.w3.org/TR/2001/REC-SVG-20010904/DTD/svg10.dtd">
<svg version="1.0" xmlns="http://www.w3.org/2000/svg"
 width="1001.000000pt" height="1000.000000pt" viewBox="0 0 1001.000000 1000.000000"
 preserveAspectRatio="xMidYMid meet">

<g transform="translate(0.000000,1000.000000) scale(0.100000,-0.100000)"
fill="#000000" stroke="none">
<path d="M3120 9639 c-1203 -106 -2208 -897 -2585 -2034 -102 -308 -145 -586
-145 -934 0 -478 98 -893 311 -1321 91 -181 218 -382 335 -530 85 -108 353
-375 464 -464 441 -352 991 -576 1565 -636 132 -14 464 -14 590 0 447 50 871
191 1230 409 55 33 105 61 110 61 6 0 105 -96 221 -212 115 -117 563 -571 994
-1008 432 -437 920 -932 1086 -1100 166 -168 329 -337 362 -377 64 -74 164
-167 226 -209 87 -60 286 -71 411 -24 177 66 311 216 354 393 17 71 15 206 -4
274 -32 115 74 5 -1685 1743 -481 475 -955 943 -1052 1040 l-177 175 98 147
c407 610 574 1356 466 2088 -20 131 -85 401 -126 517 -267 760 -796 1358
-1512 1709 -474 232 -1029 338 -1537 293z m630 -384 c296 -47 545 -129 806
-264 776 -402 1295 -1159 1395 -2036 15 -131 15 -422 0 -555 -57 -510 -268
-1008 -589 -1390 -361 -430 -824 -721 -1367 -860 -250 -64 -344 -75 -640 -74
-281 0 -409 14 -624 69 -643 163 -1197 556 -1556 1103 -399 610 -524 1359
-345 2072 154 611 545 1167 1071 1519 390 262 844 416 1296 439 167 9 421 -2
553 -23z"/>
<path d="M3180 9104 c-386 -35 -755 -154 -1070 -344 -99 -60 -310 -209 -310
-220 0 -7 68 -50 78 -50 5 0 42 25 83 56 329 247 752 412 1168 455 161 17 473
7 626 -20 647 -113 1211 -483 1568 -1026 173 -265 300 -587 351 -890 23 -136
38 -337 34 -455 l-3 -104 43 -13 c37 -10 44 -10 49 3 3 8 3 113 0 232 -5 228
-21 352 -72 550 -77 304 -226 614 -418 865 -388 510 -954 844 -1597 942 -101
15 -436 27 -530 19z"/>
<path d="M3657 8198 c-14 -11 -22 -59 -42 -283 -14 -148 -29 -280 -33 -292 -7
-22 -12 -23 -192 -28 -102 -4 -207 -7 -234 -8 l-49 -2 -68 258 c-37 142 -73
265 -80 273 -24 29 -69 10 -69 -30 0 -10 30 -132 66 -269 36 -137 62 -253 57
-256 -4 -4 -42 -16 -83 -26 -80 -19 -224 -69 -304 -105 -26 -12 -52 -18 -56
-13 -4 4 -56 98 -115 208 -59 110 -113 206 -120 214 -17 17 -60 7 -69 -15 -4
-11 36 -96 109 -234 63 -119 115 -219 115 -223 0 -4 -19 -16 -42 -28 -60 -30
-170 -106 -262 -179 -42 -34 -81 -60 -85 -58 -4 2 -76 82 -160 178 -84 96
-161 179 -173 185 -16 7 -24 4 -39 -14 -11 -13 -19 -27 -19 -32 0 -6 170 -206
312 -365 18 -20 17 -21 -44 -90 -35 -39 -82 -93 -105 -120 l-41 -49 -174 173
c-171 169 -198 188 -226 160 -29 -29 -10 -55 174 -238 102 -102 225 -230 272
-285 352 -407 744 -631 1247 -711 148 -24 420 -24 571 -1 357 55 673 193 956
418 100 81 265 250 335 345 37 51 97 105 261 235 116 93 212 175 212 183 0 31
-13 46 -39 46 -18 -1 -81 -44 -215 -150 -104 -83 -194 -150 -200 -150 -6 0
-27 22 -46 47 -19 26 -80 93 -136 149 l-101 101 189 196 c105 110 188 204 188
215 0 24 -19 42 -45 42 -13 0 -82 -65 -205 -195 -102 -107 -189 -195 -193
-195 -5 0 -63 36 -129 80 -66 45 -147 94 -180 111 -39 20 -58 35 -55 44 3 7
70 107 148 221 78 115 144 216 147 226 6 24 -15 48 -43 48 -18 0 -39 -22 -93
-102 -189 -278 -249 -363 -258 -360 -5 1 -67 22 -139 46 -71 25 -184 55 -250
67 -66 12 -123 25 -128 29 -4 4 4 121 18 261 31 313 31 335 6 349 -24 13 -24
13 -44 -2z m236 -840 c43 -11 84 -27 92 -34 30 -30 49 -126 49 -244 0 -99 -3
-125 -27 -193 -144 -411 -629 -563 -972 -305 -208 157 -300 446 -219 690 l16
48 81 24 c99 30 161 42 155 30 -64 -136 -77 -197 -60 -296 16 -94 62 -176 133
-243 83 -76 147 -99 274 -99 127 0 191 23 274 99 142 132 178 326 91 496 l-31
61 33 -7 c18 -4 68 -16 111 -27z m465 -200 c148 -91 328 -244 433 -369 l38
-45 -75 -87 c-185 -214 -468 -405 -741 -501 -218 -75 -473 -114 -683 -102
-484 28 -900 222 -1229 573 -81 86 -89 98 -79 117 23 44 267 274 356 336 88
62 216 140 230 140 4 0 6 -52 4 -116 -2 -77 2 -140 12 -190 57 -275 259 -501
534 -597 77 -27 103 -31 223 -35 115 -4 149 -1 220 17 251 63 455 236 552 467
50 118 61 179 61 331 l0 141 39 -19 c21 -11 69 -39 105 -61z"/>
<path d="M977 7168 c-48 -236 -62 -571 -32 -792 59 -444 216 -830 478 -1179
391 -520 979 -858 1647 -948 124 -17 469 -17 590 0 471 64 893 244 1245 531
104 85 106 87 70 116 -17 13 -35 24 -41 24 -6 0 -46 -29 -88 -64 -233 -194
-553 -359 -852 -441 -236 -65 -350 -79 -624 -80 -273 0 -362 10 -595 70 -820
210 -1472 865 -1681 1691 -52 206 -68 340 -68 574 0 203 15 349 49 498 8 31
11 60 7 64 -4 4 -25 10 -47 13 l-41 7 -17 -84z"/>
</g>
</svg>
