<?xml version="1.0" standalone="no"?>
<!DOCTYPE svg PUBLIC "-//W3C//DTD SVG 20010904//EN"
 "http://www.w3.org/TR/2001/REC-SVG-20010904/DTD/svg10.dtd">
<svg version="1.0" xmlns="http://www.w3.org/2000/svg"
 width="960.000000pt" height="1000.000000pt" viewBox="0 0 960.000000 1000.000000"
 preserveAspectRatio="xMidYMid meet">

<g transform="translate(0.000000,1000.000000) scale(0.100000,-0.100000)"
fill="#000000" stroke="none">
<path d="M2397 9993 c1322 -2 3484 -2 4805 0 1322 1 241 2 -2402 2 -2643 0
-3724 -1 -2403 -2z"/>
<path d="M4575 8769 c-579 -36 -1163 -215 -1640 -502 -630 -379 -1098 -882
-1423 -1532 -185 -371 -302 -762 -358 -1200 -25 -195 -26 -652 -1 -850 106
-839 472 -1593 1056 -2175 1322 -1316 3422 -1432 4881 -269 655 522 1119 1267
1295 2084 103 477 112 978 24 1450 -110 593 -363 1146 -747 1630 -118 149
-410 441 -557 559 -610 486 -1321 759 -2102 806 -189 11 -236 11 -428 -1z
m580 -329 c645 -73 1241 -321 1750 -727 142 -113 387 -357 499 -498 468 -587
718 -1264 742 -2010 27 -809 -250 -1613 -773 -2242 -95 -115 -314 -334 -428
-428 -513 -426 -1139 -690 -1799 -760 -186 -19 -506 -19 -692 0 -656 69 -1287
335 -1794 755 -118 99 -336 316 -433 433 -691 832 -941 1959 -666 2995 122
457 338 885 635 1257 112 140 357 384 499 498 382 306 822 525 1285 642 207
52 388 80 635 99 82 6 443 -3 540 -14z"/>
<path d="M4558 8319 c-443 -31 -917 -169 -1296 -376 l-84 -45 32 -33 31 -32
142 73 c315 161 617 258 982 316 121 19 179 22 435 22 256 0 314 -3 435 -22
366 -58 653 -150 975 -313 288 -146 532 -321 774 -558 446 -438 753 -1002 875
-1611 51 -252 56 -314 56 -635 -1 -323 -12 -434 -70 -685 -89 -385 -258 -771
-472 -1079 l-44 -63 27 -39 c15 -22 29 -39 33 -39 21 0 207 300 297 480 492
985 449 2135 -115 3083 -240 403 -592 773 -982 1030 -599 394 -1309 578 -2031
526z"/>
<path d="M4868 8088 c-35 -39 -82 -91 -105 -115 -24 -23 -43 -45 -43 -48 0 -2
-23 -29 -51 -59 -28 -31 -62 -69 -74 -86 -12 -17 -31 -38 -41 -48 -11 -9 -41
-44 -68 -77 -28 -33 -57 -67 -65 -76 -23 -23 -61 -69 -61 -72 0 -4 -75 -90
-112 -130 -16 -15 -28 -32 -28 -37 0 -5 -4 -10 -9 -12 -4 -1 -39 -39 -76 -83
-37 -44 -71 -81 -76 -83 -5 -2 -9 -10 -9 -18 0 -8 -4 -14 -8 -14 -11 0 -122
-136 -122 -149 0 -6 5 -11 10 -11 6 0 10 -4 10 -10 0 -5 7 -18 16 -27 8 -10
28 -33 43 -51 l27 -33 24 23 c14 13 45 48 70 78 45 55 82 98 111 129 15 16 99
116 129 154 8 11 26 31 40 46 14 14 47 53 75 86 27 33 62 73 77 89 15 16 44
50 65 77 21 26 41 48 44 49 3 0 9 -296 12 -657 4 -362 10 -921 14 -1242 4
-413 3 -582 -4 -578 -6 4 -28 33 -49 64 -21 32 -44 64 -51 71 -7 7 -20 26 -30
42 -9 17 -21 30 -25 30 -4 0 -8 7 -8 15 0 8 -4 15 -8 15 -5 0 -18 18 -31 40
-12 22 -26 40 -32 40 -5 0 -9 6 -9 13 0 7 -13 27 -29 44 -15 17 -31 37 -34 45
-4 11 -178 251 -205 283 -4 6 -23 33 -42 60 -19 28 -40 56 -47 63 -7 7 -20 26
-30 42 -9 17 -21 30 -25 30 -4 0 -8 7 -8 15 0 8 -4 15 -10 15 -5 0 -10 6 -10
13 0 7 -13 27 -30 45 -16 18 -30 35 -30 38 0 3 -29 45 -65 93 -36 49 -65 92
-65 95 0 3 34 6 75 6 l75 0 0 55 0 55 -375 0 -375 0 -1 -30 c-1 -16 -2 -40 -2
-52 -1 -23 0 -23 146 -26 l147 -3 0 -1614 0 -1615 -140 0 -140 0 0 -55 0 -55
345 0 345 0 0 55 0 54 -157 3 -158 3 -3 1483 c-1 815 1 1482 5 1482 5 -1 49
-57 98 -125 50 -69 93 -125 98 -125 4 0 7 -5 7 -11 0 -6 15 -30 32 -53 18 -22
36 -45 40 -51 5 -5 141 -192 304 -415 163 -223 301 -406 305 -408 5 -2 9 -8 9
-13 0 -5 31 -51 70 -102 l69 -92 -140 -3 -140 -3 3 -82 3 -82 166 -3 167 -2 6
-518 c3 -284 8 -667 11 -849 l5 -333 -140 0 -140 0 0 -70 0 -70 413 2 412 3 3
68 3 67 -135 0 -134 0 -4 458 c-5 662 0 912 18 905 8 -3 14 -10 14 -15 0 -11
60 -91 72 -96 5 -2 8 -8 8 -13 0 -5 46 -71 102 -147 134 -181 193 -261 262
-357 32 -44 63 -84 70 -90 6 -5 17 -22 25 -37 7 -14 26 -40 42 -58 16 -17 29
-35 29 -40 0 -4 4 -10 8 -12 4 -1 18 -20 31 -40 12 -21 27 -38 32 -38 5 0 9
-6 9 -14 0 -8 3 -16 8 -18 11 -5 52 -66 52 -78 0 -6 -50 -10 -140 -10 l-140 0
0 -55 0 -55 390 0 390 0 0 55 0 55 -157 0 -156 0 7 1606 c3 884 9 1611 12
1615 3 5 70 9 150 9 l144 0 0 55 0 55 -390 0 -390 0 0 -55 0 -55 193 -2 192
-3 -3 -755 c-1 -415 -5 -1053 -9 -1418 -6 -647 -6 -662 -24 -643 -11 11 -19
23 -19 26 0 3 -4 11 -10 18 -14 17 -226 308 -285 392 -27 39 -53 72 -57 73 -5
2 -8 10 -8 18 0 8 -4 14 -8 14 -5 0 -18 18 -31 40 -12 22 -26 40 -32 40 -5 0
-9 5 -9 10 0 11 -10 24 -42 61 -10 10 -18 22 -18 25 0 3 -43 64 -95 135 -52
71 -95 131 -95 134 0 3 42 5 93 5 59 0 97 4 105 12 12 12 17 114 6 142 -5 14
-30 16 -170 16 -159 0 -164 1 -178 23 -11 18 -15 174 -20 937 -13 1902 -19
2540 -27 2540 -4 0 -36 -32 -71 -72z m-79 -1498 c6 -393 13 -928 16 -1189 l5
-474 -33 44 -34 44 -6 169 c-4 93 -10 687 -13 1320 l-7 1151 24 25 24 25 6
-200 c4 -110 12 -522 18 -915z m-1133 -371 c44 -63 512 -702 524 -716 5 -7 10
-14 10 -17 0 -3 14 -20 30 -38 17 -18 30 -38 30 -45 0 -7 5 -13 10 -13 6 0 10
-4 10 -10 0 -5 8 -19 18 -29 32 -37 42 -50 42 -61 0 -5 4 -10 9 -10 5 0 20
-17 32 -37 13 -21 27 -39 31 -41 4 -2 8 -10 8 -18 0 -8 3 -14 8 -14 4 0 18
-18 32 -40 14 -22 28 -40 32 -40 5 0 8 -7 8 -15 0 -8 4 -15 8 -15 4 0 16 -13
25 -30 10 -16 23 -35 30 -42 7 -7 28 -35 47 -63 19 -27 40 -56 47 -65 7 -8 41
-55 77 -105 l64 -90 -47 -3 c-39 -3 -48 0 -61 19 -8 13 -26 35 -39 49 -12 14
-34 44 -48 68 -14 23 -29 42 -34 42 -5 0 -9 5 -9 11 0 6 -6 16 -12 24 -29 30
-48 56 -48 65 0 6 -4 10 -10 10 -5 0 -10 5 -10 11 0 6 -6 16 -12 24 -29 30
-48 56 -48 65 0 6 -3 10 -8 10 -4 0 -18 18 -32 40 -14 22 -28 40 -32 40 -5 0
-8 7 -8 15 0 8 -3 15 -8 15 -4 0 -18 18 -32 40 -14 22 -28 40 -32 40 -5 0 -8
7 -8 15 0 8 -3 15 -8 15 -4 0 -18 18 -32 40 -14 22 -28 40 -31 40 -4 0 -22 25
-40 55 -18 30 -37 55 -41 55 -4 0 -19 20 -34 45 -14 25 -29 45 -33 45 -4 0
-22 25 -40 55 -18 30 -37 55 -42 55 -5 0 -9 6 -9 14 0 8 -4 16 -8 18 -4 2 -18
20 -31 41 -12 20 -27 37 -32 37 -5 0 -9 5 -9 11 0 6 -6 16 -12 24 -29 30 -48
56 -48 65 0 6 -4 10 -10 10 -5 0 -10 4 -10 10 0 9 -19 35 -47 65 -7 8 -13 18
-13 24 0 6 -3 11 -8 11 -4 0 -18 18 -32 40 -14 22 -28 40 -32 40 -5 0 -8 7 -8
15 0 8 -4 15 -9 15 -20 0 -40 68 -37 121 3 30 5 56 5 59 2 5 10 -5 57 -71z
m1634 -1674 c0 -13 -57 -15 -455 -15 -398 0 -455 2 -455 15 0 13 57 15 455 15
398 0 455 -2 455 -15z m-502 -100 l30 -45 6 -332 c3 -183 8 -546 10 -805 l5
-473 -44 0 -44 0 -3 298 c-8 855 -8 1402 1 1402 5 0 23 -20 39 -45z m201 -52
c38 -54 74 -102 78 -108 5 -5 24 -32 43 -60 19 -27 41 -56 48 -64 8 -8 25 -32
39 -54 14 -22 36 -52 49 -66 13 -14 27 -34 30 -43 3 -10 10 -18 15 -18 5 0 9
-7 9 -15 0 -8 5 -15 10 -15 6 0 10 -4 10 -10 0 -5 8 -19 18 -29 29 -33 42 -50
42 -56 0 -4 6 -12 13 -20 28 -30 47 -56 47 -65 0 -6 5 -10 10 -10 6 0 10 -5
10 -11 0 -6 6 -16 13 -24 27 -29 47 -56 47 -64 0 -5 4 -11 8 -13 5 -1 23 -25
42 -53 18 -27 37 -52 40 -55 3 -3 22 -27 40 -55 19 -27 38 -54 43 -60 4 -5 44
-59 87 -119 74 -101 80 -113 80 -158 0 -60 -17 -63 -48 -8 -12 22 -27 40 -32
40 -6 0 -10 5 -10 10 0 11 -10 24 -42 61 -10 10 -18 24 -18 29 0 6 -4 10 -8
10 -5 0 -18 18 -31 40 -12 22 -26 40 -32 40 -5 0 -9 5 -9 11 0 6 -6 16 -12 24
-29 30 -48 56 -48 65 0 6 -4 10 -10 10 -5 0 -10 5 -10 11 0 6 -6 16 -12 24
-28 29 -48 56 -48 64 0 5 -4 11 -8 13 -5 2 -23 26 -42 53 -18 28 -36 52 -40
55 -3 3 -17 21 -30 40 -12 19 -28 40 -34 45 -6 6 -26 34 -45 63 -18 28 -36 52
-40 52 -3 0 -21 25 -39 55 -18 30 -37 55 -43 55 -5 0 -9 5 -9 10 0 11 -10 24
-42 61 -10 10 -18 24 -18 29 0 6 -4 10 -10 10 -5 0 -10 5 -10 10 0 11 -10 24
-42 61 -10 10 -18 24 -18 29 0 6 -3 10 -8 10 -4 0 -18 18 -32 40 -14 22 -28
40 -32 40 -5 0 -8 7 -8 15 0 8 -4 15 -8 15 -4 0 -16 13 -25 30 -10 16 -23 35
-30 42 -19 19 -47 61 -47 70 0 5 20 8 44 8 l44 0 71 -97z"/>
<path d="M2393 7257 c-54 -55 -154 -181 -229 -287 -841 -1188 -776 -2800 160
-3916 520 -621 1241 -1015 2061 -1125 228 -31 602 -31 830 0 517 70 954 233
1383 518 l144 95 -29 31 c-15 18 -29 33 -30 35 -1 2 -50 -30 -110 -71 -533
-366 -1140 -557 -1773 -557 -706 0 -1390 242 -1950 689 -130 104 -334 304
-439 431 -417 502 -656 1077 -722 1735 -15 155 -6 562 16 705 94 607 322 1125
693 1577 l100 121 -32 31 -32 31 -41 -43z"/>
<path d="M2397 3 c1322 -2 3484 -2 4805 0 1322 1 241 2 -2402 2 -2643 0 -3724
-1 -2403 -2z"/>
</g>
</svg>
