<?xml version="1.0" standalone="no"?>
<!DOCTYPE svg PUBLIC "-//W3C//DTD SVG 20010904//EN"
 "http://www.w3.org/TR/2001/REC-SVG-20010904/DTD/svg10.dtd">
<svg version="1.0" xmlns="http://www.w3.org/2000/svg"
 width="1000.000000pt" height="1000.000000pt" viewBox="0 0 1000.000000 1000.000000"
 preserveAspectRatio="xMidYMid meet">

<g transform="translate(0.000000,1000.000000) scale(0.100000,-0.100000)"
fill="#000000" stroke="none">
<path d="M5299 9282 c-35 -37 -113 -123 -174 -192 -60 -68 -131 -147 -156
-175 -141 -156 -989 -1155 -989 -1165 0 -7 26 -46 58 -87 76 -101 78 -103 85
-103 4 0 198 224 433 498 234 273 430 498 434 500 3 1 10 -395 13 -880 4 -486
10 -1247 13 -1693 l7 -810 -20 25 c-11 14 -214 293 -450 620 -236 327 -496
686 -576 797 -81 112 -147 207 -147 213 0 6 39 10 100 10 l100 0 0 75 0 75
-510 0 c-280 0 -510 -3 -511 -7 -4 -25 -4 -120 -1 -130 3 -10 52 -13 198 -13
l194 0 0 -2195 0 -2195 -190 0 -190 0 0 -75 0 -75 475 0 475 0 0 75 0 75 -217
2 -218 3 -3 2009 c-1 1106 1 2013 6 2018 6 6 250 -323 1275 -1719 70 -95 127
-175 127 -178 0 -3 -85 -5 -190 -5 -145 0 -190 -3 -191 -12 -4 -81 4 -204 14
-210 7 -4 112 -8 235 -8 l222 0 0 -282 c0 -156 2 -416 5 -578 3 -162 7 -555
10 -872 l5 -578 -188 -2 -187 -3 -3 -98 -3 -98 468 3 c257 1 511 4 563 7 l95
6 0 90 0 90 -180 5 -180 5 -5 615 c-3 338 -3 759 0 936 l5 320 275 -374 c151
-206 391 -532 533 -725 141 -192 257 -354 257 -358 0 -5 -85 -9 -190 -9 l-190
0 0 -75 0 -75 530 0 530 0 0 75 0 75 -212 2 -213 3 3 645 c1 355 5 1338 8
2185 4 847 8 1543 11 1548 2 4 92 7 199 7 l194 0 0 75 0 75 -525 0 -525 0 0
-75 0 -75 258 -2 257 -3 -3 -1070 c-2 -1130 -13 -2788 -17 -2793 -1 -2 -45 57
-98 130 -52 73 -276 383 -496 688 l-402 555 133 3 c76 1 137 7 145 14 14 12
19 184 5 205 -6 9 -68 13 -231 15 l-224 3 -18 25 c-16 23 -18 77 -24 755 -3
402 -10 1169 -15 1705 -5 536 -10 1269 -10 1628 0 358 -4 652 -8 652 -5 0 -38
-30 -73 -68z m-140 -1997 c6 -456 16 -1167 22 -1578 6 -412 9 -751 6 -753 -3
-3 -25 23 -50 58 l-45 63 -6 340 c-3 187 -8 689 -11 1115 -3 426 -8 1075 -11
1442 l-7 668 39 47 39 48 7 -310 c3 -171 11 -683 17 -1140z m-1466 -682 c79
-109 328 -450 552 -758 225 -308 522 -716 662 -907 139 -191 253 -350 253
-353 0 -3 -30 -5 -66 -3 l-66 3 -185 250 c-101 138 -216 295 -257 350 -40 55
-292 399 -561 765 l-488 665 -2 80 c-2 73 2 105 10 105 2 0 68 -89 148 -197z
m2147 -2183 c0 -19 -7 -20 -187 -20 -104 0 -380 3 -615 7 -347 5 -428 9 -428
20 0 11 108 13 615 13 608 0 615 0 615 -20z m-682 -128 l39 -52 7 -438 c7
-513 14 -910 22 -1405 l6 -357 -60 0 -59 0 -6 748 c-7 710 -10 1378 -8 1505 1
33 5 57 11 55 5 -1 27 -27 48 -56z m383 -224 c113 -156 329 -452 479 -658 151
-206 347 -476 437 -599 l163 -224 0 -63 c0 -68 -11 -85 -35 -57 -8 10 -249
338 -536 728 -287 391 -593 807 -680 925 -88 118 -159 218 -159 223 0 4 28 7
63 7 l62 0 206 -282z"/>
</g>
</svg>
