<?xml version="1.0" standalone="no"?>
<!DOCTYPE svg PUBLIC "-//W3C//DTD SVG 20010904//EN"
 "http://www.w3.org/TR/2001/REC-SVG-20010904/DTD/svg10.dtd">
<svg version="1.0" xmlns="http://www.w3.org/2000/svg"
 width="1000.000000pt" height="1000.000000pt" viewBox="0 0 1000.000000 1000.000000"
 preserveAspectRatio="xMidYMid meet">

<g transform="translate(0.000000,1000.000000) scale(0.100000,-0.100000)"
fill="#000000" stroke="none">
<path d="M1651 8691 c-13 -3 -34 -19 -45 -34 l-21 -28 -3 -3307 c-1 -1819 0
-3321 3 -3338 3 -18 17 -44 32 -58 l26 -26 3356 0 3357 0 23 21 c12 11 26 32
32 46 5 15 9 1294 9 3329 0 3515 2 3345 -45 3384 -16 13 -405 15 -3359 17
-1838 0 -3352 -2 -3365 -6z m261 -713 l3 -553 83 -3 82 -3 0 556 0 555 2920 0
2920 0 0 -2300 0 -2300 85 0 85 0 0 2300 0 2300 80 0 80 0 0 -3235 0 -3235
-80 0 -80 0 0 385 0 385 -85 0 -85 0 0 -385 0 -385 -2920 0 -2920 0 0 2110 0
2110 -85 0 -85 0 0 -2110 0 -2110 -80 0 -80 0 0 3235 0 3235 80 0 80 0 2 -552z"/>
<path d="M5068 8088 c-35 -39 -82 -91 -105 -115 -24 -23 -43 -45 -43 -48 0 -2
-23 -29 -51 -59 -28 -31 -62 -69 -74 -86 -12 -17 -31 -38 -41 -48 -11 -9 -41
-44 -68 -77 -28 -33 -57 -67 -65 -76 -23 -23 -61 -69 -61 -72 0 -4 -75 -90
-112 -130 -16 -15 -28 -32 -28 -37 0 -5 -4 -10 -9 -12 -4 -1 -39 -39 -76 -83
-37 -44 -71 -81 -76 -83 -5 -2 -9 -10 -9 -18 0 -8 -4 -14 -8 -14 -11 0 -122
-136 -122 -149 0 -6 5 -11 10 -11 6 0 10 -4 10 -10 0 -5 7 -18 16 -27 8 -10
28 -33 43 -51 l27 -33 24 23 c14 13 45 48 70 78 45 55 82 98 111 129 15 16 99
116 129 154 8 11 26 31 40 46 14 14 47 53 75 86 27 33 62 73 77 89 15 16 44
50 65 77 21 26 41 48 44 49 3 0 9 -296 12 -657 4 -362 10 -921 13 -1243 6
-515 5 -583 -8 -570 -21 21 -868 1196 -868 1204 0 3 34 6 75 6 l75 0 0 55 0
55 -375 0 -375 0 0 -55 0 -54 143 -3 142 -3 3 -1607 2 -1608 -133 0 c-90 0
-137 -4 -145 -12 -14 -14 -16 -76 -4 -96 7 -9 84 -12 353 -10 l344 3 0 55 0
55 -157 3 c-87 1 -158 6 -159 10 -3 29 -1 2943 2 2946 2 2 61 -73 130 -168
650 -883 881 -1200 886 -1212 4 -12 -17 -14 -131 -14 l-137 0 3 -82 3 -83 166
-3 167 -2 6 -518 c3 -284 8 -667 11 -849 l5 -333 -140 0 -140 0 0 -70 0 -70
413 2 412 3 3 68 3 67 -134 0 -135 0 -3 478 c-2 262 -2 572 1 688 l5 210 385
-524 c212 -288 386 -528 388 -533 2 -5 -59 -10 -135 -11 l-138 -3 -3 -57 -3
-58 391 0 391 0 -3 58 -3 57 -153 3 -154 3 7 1602 c4 881 9 1605 12 1610 2 4
69 7 149 7 l145 0 -3 53 -3 52 -387 3 -388 2 0 -55 0 -55 190 0 190 0 -1
-1017 c-1 -560 -4 -1200 -8 -1421 l-6 -404 -46 64 c-25 34 -188 260 -362 501
-174 241 -317 440 -317 443 0 2 42 4 93 4 59 0 97 4 105 12 12 12 17 114 6
142 -5 14 -30 16 -170 16 -159 0 -164 1 -178 23 -11 18 -15 174 -20 937 -13
1902 -19 2540 -27 2540 -4 0 -36 -32 -71 -72z m-88 -928 c11 -547 31 -2222 26
-2227 -1 -1 -16 17 -33 40 -29 43 -30 45 -36 211 -4 93 -10 687 -13 1320 l-7
1151 23 23 c12 13 23 22 25 20 2 -2 8 -244 15 -538z m-904 -1240 c142 -195
403 -554 581 -798 178 -244 323 -448 323 -453 0 -11 -70 -12 -86 -1 -11 7 -98
125 -776 1047 -296 404 -316 434 -318 475 -3 76 -1 105 9 95 4 -6 125 -170
267 -365z m1414 -1375 c0 -13 -57 -15 -455 -15 -398 0 -455 2 -455 15 0 13 57
15 455 15 398 0 455 -2 455 -15z m-501 -100 l29 -45 6 -333 c3 -182 8 -545 10
-804 l5 -473 -44 0 -44 0 -3 298 c-9 915 -8 1402 2 1402 6 0 23 -20 39 -45z
m597 -597 c466 -639 469 -643 472 -697 3 -41 1 -52 -10 -49 -10 4 -711 948
-998 1346 l-31 42 49 0 50 0 468 -642z"/>
</g>
</svg>
