<?xml version="1.0" standalone="no"?>
<!DOCTYPE svg PUBLIC "-//W3C//DTD SVG 20010904//EN"
 "http://www.w3.org/TR/2001/REC-SVG-20010904/DTD/svg10.dtd">
<svg version="1.0" xmlns="http://www.w3.org/2000/svg"
 width="1000.000000pt" height="1000.000000pt" viewBox="0 0 1000.000000 1000.000000"
 preserveAspectRatio="xMidYMid meet">

<g transform="translate(0.000000,1000.000000) scale(0.100000,-0.100000)"
fill="#000000" stroke="none">
<path d="M2888 6109 c-167 -161 -309 -299 -315 -307 -38 -47 4 -122 66 -122
29 0 52 18 190 152 86 84 192 188 237 231 l81 78 64 -68 c35 -37 99 -103 142
-146 43 -43 77 -82 75 -86 -2 -5 -99 -115 -215 -245 -117 -130 -215 -247 -219
-261 -13 -52 53 -109 100 -87 13 6 122 119 241 251 133 148 222 238 229 234 6
-4 38 -26 71 -49 33 -23 111 -71 173 -108 61 -37 112 -69 112 -72 0 -2 -68
-110 -150 -239 -83 -130 -156 -247 -162 -260 -15 -34 5 -80 43 -95 57 -24 72
-9 245 263 123 192 166 252 180 250 11 -1 64 -18 119 -38 55 -20 134 -45 175
-57 41 -11 76 -21 78 -23 1 -1 -43 -134 -98 -296 -55 -161 -100 -308 -100
-325 0 -38 38 -74 77 -74 49 0 66 35 172 353 57 169 106 309 109 311 4 2 27 0
52 -4 25 -5 91 -12 148 -16 l102 -7 0 -342 0 -342 23 -21 c32 -30 87 -29 115
1 22 23 22 28 22 363 l0 340 139 14 c76 8 146 14 154 12 11 -2 47 -98 118
-310 106 -317 123 -352 172 -352 39 0 77 36 77 73 0 18 -45 164 -100 325 -55
162 -98 298 -94 303 3 5 13 9 22 9 14 0 294 93 342 113 11 5 56 -58 180 -253
177 -279 191 -294 249 -270 38 15 58 61 43 95 -6 13 -79 130 -162 260 -83 130
-148 240 -145 244 2 5 37 28 77 51 40 24 119 74 175 112 57 37 104 68 107 68
2 0 101 -108 221 -241 119 -132 228 -245 241 -251 47 -22 113 35 100 87 -4 14
-102 131 -219 261 -116 130 -213 240 -215 244 -2 5 39 53 91 107 52 54 112
119 133 145 22 26 44 46 51 45 7 -1 118 -104 248 -229 210 -203 239 -228 269
-228 42 0 76 35 76 78 0 29 -18 50 -157 184 -87 83 -210 204 -273 267 -64 64
-136 133 -161 153 l-46 38 -68 -92 c-269 -360 -671 -639 -1105 -766 -255 -74
-542 -110 -740 -92 -345 32 -595 101 -870 241 -280 142 -550 369 -734 617 -38
50 -71 92 -72 92 -2 0 -140 -131 -306 -291z"/>
</g>
</svg>
