<?xml version="1.0" standalone="no"?>
<!DOCTYPE svg PUBLIC "-//W3C//DTD SVG 20010904//EN"
 "http://www.w3.org/TR/2001/REC-SVG-20010904/DTD/svg10.dtd">
<svg version="1.0" xmlns="http://www.w3.org/2000/svg"
 width="1000.000000pt" height="1000.000000pt" viewBox="0 0 1000.000000 1000.000000"
 preserveAspectRatio="xMidYMid meet">

<g transform="translate(0.000000,1000.000000) scale(0.100000,-0.100000)"
fill="#000000" stroke="none">
<path d="M4942 6967 c-22 -23 -22 -28 -22 -363 l0 -340 -139 -14 c-76 -8 -146
-14 -154 -12 -11 2 -47 98 -118 310 -106 317 -123 352 -172 352 -39 0 -77 -36
-77 -74 0 -17 45 -164 100 -325 56 -162 97 -297 93 -301 -4 -4 -37 -14 -72
-24 -35 -9 -118 -37 -185 -61 -87 -31 -123 -40 -128 -32 -4 7 -78 123 -165
259 -170 267 -185 282 -242 258 -38 -15 -58 -61 -43 -95 6 -13 79 -130 162
-260 83 -130 148 -240 145 -244 -2 -5 -37 -28 -77 -51 -40 -24 -119 -74 -175
-112 -57 -37 -104 -68 -107 -68 -2 0 -101 108 -221 241 -119 132 -228 245
-241 251 -47 22 -113 -35 -100 -87 4 -14 102 -131 219 -261 116 -130 213 -240
215 -244 2 -5 -39 -53 -91 -107 -52 -54 -112 -119 -133 -145 -22 -26 -44 -46
-51 -45 -7 1 -118 104 -248 230 -211 203 -239 227 -268 227 -43 0 -77 -35 -77
-78 0 -34 -20 -13 407 -426 51 -49 96 -99 99 -110 11 -34 193 -243 305 -351
344 -330 766 -539 1257 -622 168 -28 573 -26 744 5 490 88 913 307 1259 652
69 69 162 172 206 230 45 58 121 143 170 190 402 387 413 398 413 433 0 43
-35 77 -79 77 -28 0 -52 -19 -184 -148 -84 -81 -191 -185 -238 -230 l-86 -83
-64 68 c-35 37 -99 103 -142 146 -43 43 -77 82 -75 87 2 4 95 110 208 235 113
125 212 240 220 257 13 26 13 33 -1 56 -22 40 -61 59 -92 45 -14 -7 -123 -120
-242 -252 -137 -152 -221 -238 -229 -233 -6 4 -56 37 -111 73 -55 36 -133 85
-172 108 -40 23 -73 44 -73 46 0 3 68 111 150 240 83 130 156 247 162 260 15
34 -5 80 -43 95 -57 24 -72 9 -245 -263 -124 -194 -165 -252 -180 -250 -10 1
-84 24 -164 52 -80 28 -154 51 -165 51 -50 1 -49 6 55 310 55 161 100 308 100
326 0 38 -38 74 -77 74 -49 0 -66 -35 -172 -353 -57 -169 -106 -309 -109 -311
-4 -2 -27 0 -52 4 -25 5 -91 12 -147 16 l-103 7 0 342 0 342 -23 21 c-32 30
-87 29 -115 -1z m-389 -1043 c-38 -78 -38 -80 -38 -205 l0 -126 42 -85 c125
-252 415 -349 665 -222 62 31 161 123 194 180 88 151 91 345 7 492 -14 24 -22
46 -19 49 6 6 212 -41 252 -57 15 -6 28 -28 43 -72 107 -326 -30 -692 -327
-867 -113 -67 -208 -94 -350 -99 -152 -6 -228 10 -360 75 -299 146 -464 482
-396 811 20 98 32 124 67 140 29 14 250 72 255 68 1 -2 -15 -39 -35 -82z
m1448 -119 c204 -104 475 -322 631 -508 l40 -47 -38 -48 c-319 -390 -788 -659
-1309 -749 -141 -24 -519 -24 -660 0 -488 86 -888 299 -1224 654 -56 58 -101
113 -101 122 1 39 244 282 398 398 83 62 278 183 296 183 8 0 11 -51 12 -163
1 -186 15 -258 83 -403 232 -495 825 -694 1308 -439 194 102 328 244 424 449
59 127 82 236 83 391 1 72 -3 142 -7 158 -9 34 -1 34 64 2z"/>
</g>
</svg>
