<?xml version="1.0" standalone="no"?>
<!DOCTYPE svg PUBLIC "-//W3C//DTD SVG 20010904//EN"
 "http://www.w3.org/TR/2001/REC-SVG-20010904/DTD/svg10.dtd">
<svg version="1.0" xmlns="http://www.w3.org/2000/svg"
 width="1000.000000pt" height="1000.000000pt" viewBox="0 0 1000.000000 1000.000000"
 preserveAspectRatio="xMidYMid meet">

<g transform="translate(0.000000,1000.000000) scale(0.100000,-0.100000)"
fill="#000000" stroke="none">
<path d="M4575 9749 c-809 -70 -1585 -342 -2243 -785 -286 -193 -485 -357
-717 -589 -711 -711 -1179 -1633 -1331 -2620 -48 -315 -67 -761 -45 -1053 91
-1162 565 -2204 1371 -3012 718 -720 1643 -1189 2641 -1339 461 -70 1039 -70
1498 0 482 73 940 217 1381 435 478 235 887 529 1260 904 718 721 1185 1650
1330 2645 39 268 45 367 45 705 0 338 -5 411 -46 690 -207 1411 -1055 2662
-2294 3388 -606 355 -1296 571 -2020 632 -142 12 -687 11 -830 -1z m695 -349
c1040 -77 2001 -508 2744 -1230 728 -708 1176 -1619 1301 -2650 22 -184 31
-605 16 -800 -74 -975 -447 -1862 -1089 -2593 -52 -59 -98 -107 -101 -107 -4
0 -17 53 -30 118 -135 670 -361 1214 -654 1577 -294 364 -750 649 -1198 749
-283 63 -460 81 -926 97 -245 8 -421 8 -670 -1 -367 -12 -479 -20 -678 -51
-292 -45 -476 -99 -684 -202 -612 -302 -986 -761 -1240 -1522 -26 -77 -50
-142 -54 -145 -9 -7 -158 188 -251 330 -721 1101 -842 2464 -326 3669 33 78
76 173 95 211 35 70 158 286 189 332 l17 27 -58 45 c-32 25 -61 46 -64 46 -21
0 -208 -339 -295 -535 -191 -428 -295 -826 -339 -1295 -23 -233 -16 -646 14
-865 64 -471 184 -873 384 -1280 148 -301 286 -512 553 -845 l31 -38 -43 -194
c-24 -106 -44 -201 -44 -210 0 -30 -14 -21 -83 56 -587 653 -966 1467 -1087
2335 -59 424 -52 909 20 1336 55 320 166 696 294 995 444 1032 1272 1857 2307
2300 613 262 1324 386 1949 340z"/>
<path d="M4755 9144 c-22 -2 -92 -9 -155 -14 -459 -43 -954 -184 -1386 -396
l-134 -66 29 -37 c16 -20 40 -47 54 -60 l26 -23 103 50 c445 216 890 339 1391
383 196 17 634 7 826 -20 1101 -154 2042 -727 2680 -1632 636 -904 853 -2083
581 -3159 -22 -85 -46 -177 -54 -203 l-15 -48 54 -35 c86 -54 80 -57 114 53
110 360 160 679 168 1084 6 281 -2 427 -38 674 -131 910 -585 1768 -1264 2389
-640 585 -1418 939 -2290 1042 -122 14 -600 27 -690 18z"/>
<path d="M4825 8100 c-418 -48 -784 -226 -1071 -521 -559 -576 -649 -1452
-219 -2134 349 -554 999 -866 1653 -794 1015 111 1716 1070 1512 2070 -142
698 -699 1238 -1400 1360 -133 23 -359 32 -475 19z"/>
</g>
</svg>
